/* XPM */
static char * bush_xpm[] = {
"128 128 8 1",
" 	c #887D8D",
".	c #FFFFE0",
"+	c #B8B4B2",
"@	c #464969",
"#	c #B1D480",
"$	c #80B878",
"%	c #658D78",
"&	c #5C486A",
"                ........++++++++++++++++++++++++++++++++@@@@@@@@@@@@@@@@@@@@@@@@........++++++++++++++++++++++++        ........",
"                ........++++++++++++++++++++++++++++++++@@@@@@@@@@@@@@@@@@@@@@@@........++++++++++++++++++++++++        ........",
"                ........++++++++++++++++++++++++++++++++@@@@@@@@@@@@@@@@@@@@@@@@........++++++++++++++++++++++++        ........",
"                ........++++++++++++++++++++++++++++++++@@@@@@@@@@@@@@@@@@@@@@@@........++++++++++++++++++++++++        ........",
"                ........++++++++++++++++++++++++++++++++@@@@@@@@@@@@@@@@@@@@@@@@........++++++++++++++++++++++++        ........",
"                ........++++++++++++++++++++++++++++++++@@@@@@@@@@@@@@@@@@@@@@@@........++++++++++++++++++++++++        ........",
"                ........++++++++++++++++++++++++++++++++@@@@@@@@@@@@@@@@@@@@@@@@........++++++++++++++++++++++++        ........",
"                ........++++++++++++++++++++++++++++++++@@@@@@@@@@@@@@@@@@@@@@@@........++++++++++++++++++++++++        ........",
"        ++++++++++++++++++++++++++++++++++++++++@@@@@@@@########################@@@@@@@@++++++++++++++++++++++++++++++++        ",
"        ++++++++++++++++++++++++++++++++++++++++@@@@@@@@########################@@@@@@@@++++++++++++++++++++++++++++++++        ",
"        ++++++++++++++++++++++++++++++++++++++++@@@@@@@@########################@@@@@@@@++++++++++++++++++++++++++++++++        ",
"        ++++++++++++++++++++++++++++++++++++++++@@@@@@@@########################@@@@@@@@++++++++++++++++++++++++++++++++        ",
"        ++++++++++++++++++++++++++++++++++++++++@@@@@@@@########################@@@@@@@@++++++++++++++++++++++++++++++++        ",
"        ++++++++++++++++++++++++++++++++++++++++@@@@@@@@########################@@@@@@@@++++++++++++++++++++++++++++++++        ",
"        ++++++++++++++++++++++++++++++++++++++++@@@@@@@@########################@@@@@@@@++++++++++++++++++++++++++++++++        ",
"        ++++++++++++++++++++++++++++++++++++++++@@@@@@@@########################@@@@@@@@++++++++++++++++++++++++++++++++        ",
"@@@@@@@@@@@@@@@@++++++++++++++++++++++++@@@@@@@@########$$$$$$$$$$$$$$$$$$$$$$$$$$$$$$$$@@@@@@@@++++++++++++++++@@@@@@@@@@@@@@@@",
"@@@@@@@@@@@@@@@@++++++++++++++++++++++++@@@@@@@@########$$$$$$$$$$$$$$$$$$$$$$$$$$$$$$$$@@@@@@@@++++++++++++++++@@@@@@@@@@@@@@@@",
"@@@@@@@@@@@@@@@@++++++++++++++++++++++++@@@@@@@@########$$$$$$$$$$$$$$$$$$$$$$$$$$$$$$$$@@@@@@@@++++++++++++++++@@@@@@@@@@@@@@@@",
"@@@@@@@@@@@@@@@@++++++++++++++++++++++++@@@@@@@@########$$$$$$$$$$$$$$$$$$$$$$$$$$$$$$$$@@@@@@@@++++++++++++++++@@@@@@@@@@@@@@@@",
"@@@@@@@@@@@@@@@@++++++++++++++++++++++++@@@@@@@@########$$$$$$$$$$$$$$$$$$$$$$$$$$$$$$$$@@@@@@@@++++++++++++++++@@@@@@@@@@@@@@@@",
"@@@@@@@@@@@@@@@@++++++++++++++++++++++++@@@@@@@@########$$$$$$$$$$$$$$$$$$$$$$$$$$$$$$$$@@@@@@@@++++++++++++++++@@@@@@@@@@@@@@@@",
"@@@@@@@@@@@@@@@@++++++++++++++++++++++++@@@@@@@@########$$$$$$$$$$$$$$$$$$$$$$$$$$$$$$$$@@@@@@@@++++++++++++++++@@@@@@@@@@@@@@@@",
"@@@@@@@@@@@@@@@@++++++++++++++++++++++++@@@@@@@@########$$$$$$$$$$$$$$$$$$$$$$$$$$$$$$$$@@@@@@@@++++++++++++++++@@@@@@@@@@@@@@@@",
"@@@@@@@@########@@@@@@@@++++++++@@@@@@@@########$$$$$$$$%%%%%%%%%%%%%%%%%%%%%%%%$$$$$$$$$$$$$$$$@@@@@@@@@@@@@@@@$$$$$$$$@@@@@@@@",
"@@@@@@@@########@@@@@@@@++++++++@@@@@@@@########$$$$$$$$%%%%%%%%%%%%%%%%%%%%%%%%$$$$$$$$$$$$$$$$@@@@@@@@@@@@@@@@$$$$$$$$@@@@@@@@",
"@@@@@@@@########@@@@@@@@++++++++@@@@@@@@########$$$$$$$$%%%%%%%%%%%%%%%%%%%%%%%%$$$$$$$$$$$$$$$$@@@@@@@@@@@@@@@@$$$$$$$$@@@@@@@@",
"@@@@@@@@########@@@@@@@@++++++++@@@@@@@@########$$$$$$$$%%%%%%%%%%%%%%%%%%%%%%%%$$$$$$$$$$$$$$$$@@@@@@@@@@@@@@@@$$$$$$$$@@@@@@@@",
"@@@@@@@@########@@@@@@@@++++++++@@@@@@@@########$$$$$$$$%%%%%%%%%%%%%%%%%%%%%%%%$$$$$$$$$$$$$$$$@@@@@@@@@@@@@@@@$$$$$$$$@@@@@@@@",
"@@@@@@@@########@@@@@@@@++++++++@@@@@@@@########$$$$$$$$%%%%%%%%%%%%%%%%%%%%%%%%$$$$$$$$$$$$$$$$@@@@@@@@@@@@@@@@$$$$$$$$@@@@@@@@",
"@@@@@@@@########@@@@@@@@++++++++@@@@@@@@########$$$$$$$$%%%%%%%%%%%%%%%%%%%%%%%%$$$$$$$$$$$$$$$$@@@@@@@@@@@@@@@@$$$$$$$$@@@@@@@@",
"@@@@@@@@########@@@@@@@@++++++++@@@@@@@@########$$$$$$$$%%%%%%%%%%%%%%%%%%%%%%%%$$$$$$$$$$$$$$$$@@@@@@@@@@@@@@@@$$$$$$$$@@@@@@@@",
"@@@@@@@@########$$$$$$$$@@@@@@@@@@@@@@@@$$$$$$$$%%%%%%%%@@@@@@@@@@@@@@@@@@@@@@@@$$$$$$$$$$$$$$$$@@@@@@@@%%%%%%%%$$$$$$$$@@@@@@@@",
"@@@@@@@@########$$$$$$$$@@@@@@@@@@@@@@@@$$$$$$$$%%%%%%%%@@@@@@@@@@@@@@@@@@@@@@@@$$$$$$$$$$$$$$$$@@@@@@@@%%%%%%%%$$$$$$$$@@@@@@@@",
"@@@@@@@@########$$$$$$$$@@@@@@@@@@@@@@@@$$$$$$$$%%%%%%%%@@@@@@@@@@@@@@@@@@@@@@@@$$$$$$$$$$$$$$$$@@@@@@@@%%%%%%%%$$$$$$$$@@@@@@@@",
"@@@@@@@@########$$$$$$$$@@@@@@@@@@@@@@@@$$$$$$$$%%%%%%%%@@@@@@@@@@@@@@@@@@@@@@@@$$$$$$$$$$$$$$$$@@@@@@@@%%%%%%%%$$$$$$$$@@@@@@@@",
"@@@@@@@@########$$$$$$$$@@@@@@@@@@@@@@@@$$$$$$$$%%%%%%%%@@@@@@@@@@@@@@@@@@@@@@@@$$$$$$$$$$$$$$$$@@@@@@@@%%%%%%%%$$$$$$$$@@@@@@@@",
"@@@@@@@@########$$$$$$$$@@@@@@@@@@@@@@@@$$$$$$$$%%%%%%%%@@@@@@@@@@@@@@@@@@@@@@@@$$$$$$$$$$$$$$$$@@@@@@@@%%%%%%%%$$$$$$$$@@@@@@@@",
"@@@@@@@@########$$$$$$$$@@@@@@@@@@@@@@@@$$$$$$$$%%%%%%%%@@@@@@@@@@@@@@@@@@@@@@@@$$$$$$$$$$$$$$$$@@@@@@@@%%%%%%%%$$$$$$$$@@@@@@@@",
"@@@@@@@@########$$$$$$$$@@@@@@@@@@@@@@@@$$$$$$$$%%%%%%%%@@@@@@@@@@@@@@@@@@@@@@@@$$$$$$$$$$$$$$$$@@@@@@@@%%%%%%%%$$$$$$$$@@@@@@@@",
"@@@@@@@@########$$$$$$$$%%%%%%%%@@@@@@@@%%%%%%%%@@@@@@@@%%%%%%%%$$$$$$$$$$$$$$$$@@@@@@@@@@@@@@@@%%%%%%%%$$$$$$$$$$$$$$$$@@@@@@@@",
"@@@@@@@@########$$$$$$$$%%%%%%%%@@@@@@@@%%%%%%%%@@@@@@@@%%%%%%%%$$$$$$$$$$$$$$$$@@@@@@@@@@@@@@@@%%%%%%%%$$$$$$$$$$$$$$$$@@@@@@@@",
"@@@@@@@@########$$$$$$$$%%%%%%%%@@@@@@@@%%%%%%%%@@@@@@@@%%%%%%%%$$$$$$$$$$$$$$$$@@@@@@@@@@@@@@@@%%%%%%%%$$$$$$$$$$$$$$$$@@@@@@@@",
"@@@@@@@@########$$$$$$$$%%%%%%%%@@@@@@@@%%%%%%%%@@@@@@@@%%%%%%%%$$$$$$$$$$$$$$$$@@@@@@@@@@@@@@@@%%%%%%%%$$$$$$$$$$$$$$$$@@@@@@@@",
"@@@@@@@@########$$$$$$$$%%%%%%%%@@@@@@@@%%%%%%%%@@@@@@@@%%%%%%%%$$$$$$$$$$$$$$$$@@@@@@@@@@@@@@@@%%%%%%%%$$$$$$$$$$$$$$$$@@@@@@@@",
"@@@@@@@@########$$$$$$$$%%%%%%%%@@@@@@@@%%%%%%%%@@@@@@@@%%%%%%%%$$$$$$$$$$$$$$$$@@@@@@@@@@@@@@@@%%%%%%%%$$$$$$$$$$$$$$$$@@@@@@@@",
"@@@@@@@@########$$$$$$$$%%%%%%%%@@@@@@@@%%%%%%%%@@@@@@@@%%%%%%%%$$$$$$$$$$$$$$$$@@@@@@@@@@@@@@@@%%%%%%%%$$$$$$$$$$$$$$$$@@@@@@@@",
"@@@@@@@@########$$$$$$$$%%%%%%%%@@@@@@@@%%%%%%%%@@@@@@@@%%%%%%%%$$$$$$$$$$$$$$$$@@@@@@@@@@@@@@@@%%%%%%%%$$$$$$$$$$$$$$$$@@@@@@@@",
"@@@@@@@@########$$$$$$$$$$$$$$$$%%%%%%%%@@@@@@@@@@@@@@@@%%%%%%%%@@@@@@@@$$$$$$$$@@@@@@@@%%%%%%%%$$$$$$$$$$$$$$$$$$$$$$$$@@@@@@@@",
"@@@@@@@@########$$$$$$$$$$$$$$$$%%%%%%%%@@@@@@@@@@@@@@@@%%%%%%%%@@@@@@@@$$$$$$$$@@@@@@@@%%%%%%%%$$$$$$$$$$$$$$$$$$$$$$$$@@@@@@@@",
"@@@@@@@@########$$$$$$$$$$$$$$$$%%%%%%%%@@@@@@@@@@@@@@@@%%%%%%%%@@@@@@@@$$$$$$$$@@@@@@@@%%%%%%%%$$$$$$$$$$$$$$$$$$$$$$$$@@@@@@@@",
"@@@@@@@@########$$$$$$$$$$$$$$$$%%%%%%%%@@@@@@@@@@@@@@@@%%%%%%%%@@@@@@@@$$$$$$$$@@@@@@@@%%%%%%%%$$$$$$$$$$$$$$$$$$$$$$$$@@@@@@@@",
"@@@@@@@@########$$$$$$$$$$$$$$$$%%%%%%%%@@@@@@@@@@@@@@@@%%%%%%%%@@@@@@@@$$$$$$$$@@@@@@@@%%%%%%%%$$$$$$$$$$$$$$$$$$$$$$$$@@@@@@@@",
"@@@@@@@@########$$$$$$$$$$$$$$$$%%%%%%%%@@@@@@@@@@@@@@@@%%%%%%%%@@@@@@@@$$$$$$$$@@@@@@@@%%%%%%%%$$$$$$$$$$$$$$$$$$$$$$$$@@@@@@@@",
"@@@@@@@@########$$$$$$$$$$$$$$$$%%%%%%%%@@@@@@@@@@@@@@@@%%%%%%%%@@@@@@@@$$$$$$$$@@@@@@@@%%%%%%%%$$$$$$$$$$$$$$$$$$$$$$$$@@@@@@@@",
"@@@@@@@@########$$$$$$$$$$$$$$$$%%%%%%%%@@@@@@@@@@@@@@@@%%%%%%%%@@@@@@@@$$$$$$$$@@@@@@@@%%%%%%%%$$$$$$$$$$$$$$$$$$$$$$$$@@@@@@@@",
"&&&&&&&&@@@@@@@@########$$$$$$$$$$$$$$$$%%%%%%%%@@@@@@@@%%%%%%%%@@@@@@@@%%%%%%%%@@@@@@@@%%%%%%%%$$$$$$$$$$$$$$$$@@@@@@@@        ",
"&&&&&&&&@@@@@@@@########$$$$$$$$$$$$$$$$%%%%%%%%@@@@@@@@%%%%%%%%@@@@@@@@%%%%%%%%@@@@@@@@%%%%%%%%$$$$$$$$$$$$$$$$@@@@@@@@        ",
"&&&&&&&&@@@@@@@@########$$$$$$$$$$$$$$$$%%%%%%%%@@@@@@@@%%%%%%%%@@@@@@@@%%%%%%%%@@@@@@@@%%%%%%%%$$$$$$$$$$$$$$$$@@@@@@@@        ",
"&&&&&&&&@@@@@@@@########$$$$$$$$$$$$$$$$%%%%%%%%@@@@@@@@%%%%%%%%@@@@@@@@%%%%%%%%@@@@@@@@%%%%%%%%$$$$$$$$$$$$$$$$@@@@@@@@        ",
"&&&&&&&&@@@@@@@@########$$$$$$$$$$$$$$$$%%%%%%%%@@@@@@@@%%%%%%%%@@@@@@@@%%%%%%%%@@@@@@@@%%%%%%%%$$$$$$$$$$$$$$$$@@@@@@@@        ",
"&&&&&&&&@@@@@@@@########$$$$$$$$$$$$$$$$%%%%%%%%@@@@@@@@%%%%%%%%@@@@@@@@%%%%%%%%@@@@@@@@%%%%%%%%$$$$$$$$$$$$$$$$@@@@@@@@        ",
"&&&&&&&&@@@@@@@@########$$$$$$$$$$$$$$$$%%%%%%%%@@@@@@@@%%%%%%%%@@@@@@@@%%%%%%%%@@@@@@@@%%%%%%%%$$$$$$$$$$$$$$$$@@@@@@@@        ",
"&&&&&&&&@@@@@@@@########$$$$$$$$$$$$$$$$%%%%%%%%@@@@@@@@%%%%%%%%@@@@@@@@%%%%%%%%@@@@@@@@%%%%%%%%$$$$$$$$$$$$$$$$@@@@@@@@        ",
"                @@@@@@@@@@@@@@@@%%%%%%%%%%%%%%%%@@@@@@@@@@@@@@@@@@@@@@@@@@@@@@@@@@@@@@@@%%%%%%%%@@@@@@@@@@@@@@@@++++++++++++++++",
"                @@@@@@@@@@@@@@@@%%%%%%%%%%%%%%%%@@@@@@@@@@@@@@@@@@@@@@@@@@@@@@@@@@@@@@@@%%%%%%%%@@@@@@@@@@@@@@@@++++++++++++++++",
"                @@@@@@@@@@@@@@@@%%%%%%%%%%%%%%%%@@@@@@@@@@@@@@@@@@@@@@@@@@@@@@@@@@@@@@@@%%%%%%%%@@@@@@@@@@@@@@@@++++++++++++++++",
"                @@@@@@@@@@@@@@@@%%%%%%%%%%%%%%%%@@@@@@@@@@@@@@@@@@@@@@@@@@@@@@@@@@@@@@@@%%%%%%%%@@@@@@@@@@@@@@@@++++++++++++++++",
"                @@@@@@@@@@@@@@@@%%%%%%%%%%%%%%%%@@@@@@@@@@@@@@@@@@@@@@@@@@@@@@@@@@@@@@@@%%%%%%%%@@@@@@@@@@@@@@@@++++++++++++++++",
"                @@@@@@@@@@@@@@@@%%%%%%%%%%%%%%%%@@@@@@@@@@@@@@@@@@@@@@@@@@@@@@@@@@@@@@@@%%%%%%%%@@@@@@@@@@@@@@@@++++++++++++++++",
"                @@@@@@@@@@@@@@@@%%%%%%%%%%%%%%%%@@@@@@@@@@@@@@@@@@@@@@@@@@@@@@@@@@@@@@@@%%%%%%%%@@@@@@@@@@@@@@@@++++++++++++++++",
"                @@@@@@@@@@@@@@@@%%%%%%%%%%%%%%%%@@@@@@@@@@@@@@@@@@@@@@@@@@@@@@@@@@@@@@@@%%%%%%%%@@@@@@@@@@@@@@@@++++++++++++++++",
"        ........@@@@@@@@%%%%%%%%@@@@@@@@@@@@@@@@@@@@@@@@@@@@@@@@@@@@@@@@@@@@@@@@@@@@@@@@@@@@@@@@%%%%%%%%@@@@@@@@++++++++++++++++",
"        ........@@@@@@@@%%%%%%%%@@@@@@@@@@@@@@@@@@@@@@@@@@@@@@@@@@@@@@@@@@@@@@@@@@@@@@@@@@@@@@@@%%%%%%%%@@@@@@@@++++++++++++++++",
"        ........@@@@@@@@%%%%%%%%@@@@@@@@@@@@@@@@@@@@@@@@@@@@@@@@@@@@@@@@@@@@@@@@@@@@@@@@@@@@@@@@%%%%%%%%@@@@@@@@++++++++++++++++",
"        ........@@@@@@@@%%%%%%%%@@@@@@@@@@@@@@@@@@@@@@@@@@@@@@@@@@@@@@@@@@@@@@@@@@@@@@@@@@@@@@@@%%%%%%%%@@@@@@@@++++++++++++++++",
"        ........@@@@@@@@%%%%%%%%@@@@@@@@@@@@@@@@@@@@@@@@@@@@@@@@@@@@@@@@@@@@@@@@@@@@@@@@@@@@@@@@%%%%%%%%@@@@@@@@++++++++++++++++",
"        ........@@@@@@@@%%%%%%%%@@@@@@@@@@@@@@@@@@@@@@@@@@@@@@@@@@@@@@@@@@@@@@@@@@@@@@@@@@@@@@@@%%%%%%%%@@@@@@@@++++++++++++++++",
"        ........@@@@@@@@%%%%%%%%@@@@@@@@@@@@@@@@@@@@@@@@@@@@@@@@@@@@@@@@@@@@@@@@@@@@@@@@@@@@@@@@%%%%%%%%@@@@@@@@++++++++++++++++",
"        ........@@@@@@@@%%%%%%%%@@@@@@@@@@@@@@@@@@@@@@@@@@@@@@@@@@@@@@@@@@@@@@@@@@@@@@@@@@@@@@@@%%%%%%%%@@@@@@@@++++++++++++++++",
"        @@@@@@@@########$$$$$$$$$$$$$$$$%%%%%%%%@@@@@@@@%%%%%%%%@@@@@@@@@@@@@@@@@@@@@@@@%%%%%%%%$$$$$$$$$$$$$$$$@@@@@@@@++++++++",
"        @@@@@@@@########$$$$$$$$$$$$$$$$%%%%%%%%@@@@@@@@%%%%%%%%@@@@@@@@@@@@@@@@@@@@@@@@%%%%%%%%$$$$$$$$$$$$$$$$@@@@@@@@++++++++",
"        @@@@@@@@########$$$$$$$$$$$$$$$$%%%%%%%%@@@@@@@@%%%%%%%%@@@@@@@@@@@@@@@@@@@@@@@@%%%%%%%%$$$$$$$$$$$$$$$$@@@@@@@@++++++++",
"        @@@@@@@@########$$$$$$$$$$$$$$$$%%%%%%%%@@@@@@@@%%%%%%%%@@@@@@@@@@@@@@@@@@@@@@@@%%%%%%%%$$$$$$$$$$$$$$$$@@@@@@@@++++++++",
"        @@@@@@@@########$$$$$$$$$$$$$$$$%%%%%%%%@@@@@@@@%%%%%%%%@@@@@@@@@@@@@@@@@@@@@@@@%%%%%%%%$$$$$$$$$$$$$$$$@@@@@@@@++++++++",
"        @@@@@@@@########$$$$$$$$$$$$$$$$%%%%%%%%@@@@@@@@%%%%%%%%@@@@@@@@@@@@@@@@@@@@@@@@%%%%%%%%$$$$$$$$$$$$$$$$@@@@@@@@++++++++",
"        @@@@@@@@########$$$$$$$$$$$$$$$$%%%%%%%%@@@@@@@@%%%%%%%%@@@@@@@@@@@@@@@@@@@@@@@@%%%%%%%%$$$$$$$$$$$$$$$$@@@@@@@@++++++++",
"        @@@@@@@@########$$$$$$$$$$$$$$$$%%%%%%%%@@@@@@@@%%%%%%%%@@@@@@@@@@@@@@@@@@@@@@@@%%%%%%%%$$$$$$$$$$$$$$$$@@@@@@@@++++++++",
"@@@@@@@@########$$$$$$$$$$$$$$$$$$$$$$$$@@@@@@@@%%%%%%%%$$$$$$$$@@@@@@@@%%%%%%%%%%%%%%%%@@@@@@@@%%%%%%%%%%%%%%%%$$$$$$$$@@@@@@@@",
"@@@@@@@@########$$$$$$$$$$$$$$$$$$$$$$$$@@@@@@@@%%%%%%%%$$$$$$$$@@@@@@@@%%%%%%%%%%%%%%%%@@@@@@@@%%%%%%%%%%%%%%%%$$$$$$$$@@@@@@@@",
"@@@@@@@@########$$$$$$$$$$$$$$$$$$$$$$$$@@@@@@@@%%%%%%%%$$$$$$$$@@@@@@@@%%%%%%%%%%%%%%%%@@@@@@@@%%%%%%%%%%%%%%%%$$$$$$$$@@@@@@@@",
"@@@@@@@@########$$$$$$$$$$$$$$$$$$$$$$$$@@@@@@@@%%%%%%%%$$$$$$$$@@@@@@@@%%%%%%%%%%%%%%%%@@@@@@@@%%%%%%%%%%%%%%%%$$$$$$$$@@@@@@@@",
"@@@@@@@@########$$$$$$$$$$$$$$$$$$$$$$$$@@@@@@@@%%%%%%%%$$$$$$$$@@@@@@@@%%%%%%%%%%%%%%%%@@@@@@@@%%%%%%%%%%%%%%%%$$$$$$$$@@@@@@@@",
"@@@@@@@@########$$$$$$$$$$$$$$$$$$$$$$$$@@@@@@@@%%%%%%%%$$$$$$$$@@@@@@@@%%%%%%%%%%%%%%%%@@@@@@@@%%%%%%%%%%%%%%%%$$$$$$$$@@@@@@@@",
"@@@@@@@@########$$$$$$$$$$$$$$$$$$$$$$$$@@@@@@@@%%%%%%%%$$$$$$$$@@@@@@@@%%%%%%%%%%%%%%%%@@@@@@@@%%%%%%%%%%%%%%%%$$$$$$$$@@@@@@@@",
"@@@@@@@@########$$$$$$$$$$$$$$$$$$$$$$$$@@@@@@@@%%%%%%%%$$$$$$$$@@@@@@@@%%%%%%%%%%%%%%%%@@@@@@@@%%%%%%%%%%%%%%%%$$$$$$$$@@@@@@@@",
"@@@@@@@@@@@@@@@@@@@@@@@@@@@@@@@@@@@@@@@@########$$$$$$$$$$$$$$$$@@@@@@@@%%%%%%%%$$$$$$$$@@@@@@@@@@@@@@@@@@@@@@@@@@@@@@@@@@@@@@@@",
"@@@@@@@@@@@@@@@@@@@@@@@@@@@@@@@@@@@@@@@@########$$$$$$$$$$$$$$$$@@@@@@@@%%%%%%%%$$$$$$$$@@@@@@@@@@@@@@@@@@@@@@@@@@@@@@@@@@@@@@@@",
"@@@@@@@@@@@@@@@@@@@@@@@@@@@@@@@@@@@@@@@@########$$$$$$$$$$$$$$$$@@@@@@@@%%%%%%%%$$$$$$$$@@@@@@@@@@@@@@@@@@@@@@@@@@@@@@@@@@@@@@@@",
"@@@@@@@@@@@@@@@@@@@@@@@@@@@@@@@@@@@@@@@@########$$$$$$$$$$$$$$$$@@@@@@@@%%%%%%%%$$$$$$$$@@@@@@@@@@@@@@@@@@@@@@@@@@@@@@@@@@@@@@@@",
"@@@@@@@@@@@@@@@@@@@@@@@@@@@@@@@@@@@@@@@@########$$$$$$$$$$$$$$$$@@@@@@@@%%%%%%%%$$$$$$$$@@@@@@@@@@@@@@@@@@@@@@@@@@@@@@@@@@@@@@@@",
"@@@@@@@@@@@@@@@@@@@@@@@@@@@@@@@@@@@@@@@@########$$$$$$$$$$$$$$$$@@@@@@@@%%%%%%%%$$$$$$$$@@@@@@@@@@@@@@@@@@@@@@@@@@@@@@@@@@@@@@@@",
"@@@@@@@@@@@@@@@@@@@@@@@@@@@@@@@@@@@@@@@@########$$$$$$$$$$$$$$$$@@@@@@@@%%%%%%%%$$$$$$$$@@@@@@@@@@@@@@@@@@@@@@@@@@@@@@@@@@@@@@@@",
"@@@@@@@@@@@@@@@@@@@@@@@@@@@@@@@@@@@@@@@@########$$$$$$$$$$$$$$$$@@@@@@@@%%%%%%%%$$$$$$$$@@@@@@@@@@@@@@@@@@@@@@@@@@@@@@@@@@@@@@@@",
"        ........++++++++++++++++@@@@@@@@################$$$$$$$$########$$$$$$$$$$$$$$$$@@@@@@@@++++++++++++++++++++++++++++++++",
"        ........++++++++++++++++@@@@@@@@################$$$$$$$$########$$$$$$$$$$$$$$$$@@@@@@@@++++++++++++++++++++++++++++++++",
"        ........++++++++++++++++@@@@@@@@################$$$$$$$$########$$$$$$$$$$$$$$$$@@@@@@@@++++++++++++++++++++++++++++++++",
"        ........++++++++++++++++@@@@@@@@################$$$$$$$$########$$$$$$$$$$$$$$$$@@@@@@@@++++++++++++++++++++++++++++++++",
"        ........++++++++++++++++@@@@@@@@################$$$$$$$$########$$$$$$$$$$$$$$$$@@@@@@@@++++++++++++++++++++++++++++++++",
"        ........++++++++++++++++@@@@@@@@################$$$$$$$$########$$$$$$$$$$$$$$$$@@@@@@@@++++++++++++++++++++++++++++++++",
"        ........++++++++++++++++@@@@@@@@################$$$$$$$$########$$$$$$$$$$$$$$$$@@@@@@@@++++++++++++++++++++++++++++++++",
"        ........++++++++++++++++@@@@@@@@################$$$$$$$$########$$$$$$$$$$$$$$$$@@@@@@@@++++++++++++++++++++++++++++++++",
"                ........++++++++++++++++@@@@@@@@@@@@@@@@@@@@@@@@@@@@@@@@@@@@@@@@@@@@@@@@++++++++++++++++++++++++++++++++        ",
"                ........++++++++++++++++@@@@@@@@@@@@@@@@@@@@@@@@@@@@@@@@@@@@@@@@@@@@@@@@++++++++++++++++++++++++++++++++        ",
"                ........++++++++++++++++@@@@@@@@@@@@@@@@@@@@@@@@@@@@@@@@@@@@@@@@@@@@@@@@++++++++++++++++++++++++++++++++        ",
"                ........++++++++++++++++@@@@@@@@@@@@@@@@@@@@@@@@@@@@@@@@@@@@@@@@@@@@@@@@++++++++++++++++++++++++++++++++        ",
"                ........++++++++++++++++@@@@@@@@@@@@@@@@@@@@@@@@@@@@@@@@@@@@@@@@@@@@@@@@++++++++++++++++++++++++++++++++        ",
"                ........++++++++++++++++@@@@@@@@@@@@@@@@@@@@@@@@@@@@@@@@@@@@@@@@@@@@@@@@++++++++++++++++++++++++++++++++        ",
"                ........++++++++++++++++@@@@@@@@@@@@@@@@@@@@@@@@@@@@@@@@@@@@@@@@@@@@@@@@++++++++++++++++++++++++++++++++        ",
"                ........++++++++++++++++@@@@@@@@@@@@@@@@@@@@@@@@@@@@@@@@@@@@@@@@@@@@@@@@++++++++++++++++++++++++++++++++        ",
"&&&&&&&&                                                        &&&&&&&&                                                        ",
"&&&&&&&&                                                        &&&&&&&&                                                        ",
"&&&&&&&&                                                        &&&&&&&&                                                        ",
"&&&&&&&&                                                        &&&&&&&&                                                        ",
"&&&&&&&&                                                        &&&&&&&&                                                        ",
"&&&&&&&&                                                        &&&&&&&&                                                        ",
"&&&&&&&&                                                        &&&&&&&&                                                        ",
"&&&&&&&&                                                        &&&&&&&&                                                        "};
