/* XPM */
static char * exit_open_xpm[] = {
"128 128 11 1",
" 	c #887D8D",
".	c #3D003D",
"+	c #942C4B",
"@	c #C7424F",
"#	c #FFFFE0",
"$	c #B8B4B2",
"%	c #5B3374",
"&	c #804085",
"*	c #AF5D8B",
"=	c #412051",
"-	c #5C486A",
"        ........................++++++++++++++++................@@@@@@@@########........................$$$$$$$$        ########",
"        ........................++++++++++++++++................@@@@@@@@########........................$$$$$$$$        ########",
"        ........................++++++++++++++++................@@@@@@@@########........................$$$$$$$$        ########",
"        ........................++++++++++++++++................@@@@@@@@########........................$$$$$$$$        ########",
"        ........................++++++++++++++++................@@@@@@@@########........................$$$$$$$$        ########",
"        ........................++++++++++++++++................@@@@@@@@########........................$$$$$$$$        ########",
"        ........................++++++++++++++++................@@@@@@@@########........................$$$$$$$$        ########",
"        ........................++++++++++++++++................@@@@@@@@########........................$$$$$$$$        ########",
"........@@@@@@@@########........########@@@@@@@@................++++++++++++++++........@@@@@@@@########........$$$$$$$$        ",
"........@@@@@@@@########........########@@@@@@@@................++++++++++++++++........@@@@@@@@########........$$$$$$$$        ",
"........@@@@@@@@########........########@@@@@@@@................++++++++++++++++........@@@@@@@@########........$$$$$$$$        ",
"........@@@@@@@@########........########@@@@@@@@................++++++++++++++++........@@@@@@@@########........$$$$$$$$        ",
"........@@@@@@@@########........########@@@@@@@@................++++++++++++++++........@@@@@@@@########........$$$$$$$$        ",
"........@@@@@@@@########........########@@@@@@@@................++++++++++++++++........@@@@@@@@########........$$$$$$$$        ",
"........@@@@@@@@########........########@@@@@@@@................++++++++++++++++........@@@@@@@@########........$$$$$$$$        ",
"........@@@@@@@@########........########@@@@@@@@................++++++++++++++++........@@@@@@@@########........$$$$$$$$        ",
"........++++++++++++++++........########........%%%%%%%%%%%%%%%%........########........++++++++++++++++........$$$$$$$$########",
"........++++++++++++++++........########........%%%%%%%%%%%%%%%%........########........++++++++++++++++........$$$$$$$$########",
"........++++++++++++++++........########........%%%%%%%%%%%%%%%%........########........++++++++++++++++........$$$$$$$$########",
"........++++++++++++++++........########........%%%%%%%%%%%%%%%%........########........++++++++++++++++........$$$$$$$$########",
"........++++++++++++++++........########........%%%%%%%%%%%%%%%%........########........++++++++++++++++........$$$$$$$$########",
"........++++++++++++++++........########........%%%%%%%%%%%%%%%%........########........++++++++++++++++........$$$$$$$$########",
"........++++++++++++++++........########........%%%%%%%%%%%%%%%%........########........++++++++++++++++........$$$$$$$$########",
"........++++++++++++++++........########........%%%%%%%%%%%%%%%%........########........++++++++++++++++........$$$$$$$$########",
"        ........########........&&&&&&&&%%%%%%%%%%%%%%%%&&&&&&&&&&&&&&&&********........########........................$$$$$$$$",
"        ........########........&&&&&&&&%%%%%%%%%%%%%%%%&&&&&&&&&&&&&&&&********........########........................$$$$$$$$",
"        ........########........&&&&&&&&%%%%%%%%%%%%%%%%&&&&&&&&&&&&&&&&********........########........................$$$$$$$$",
"        ........########........&&&&&&&&%%%%%%%%%%%%%%%%&&&&&&&&&&&&&&&&********........########........................$$$$$$$$",
"        ........########........&&&&&&&&%%%%%%%%%%%%%%%%&&&&&&&&&&&&&&&&********........########........................$$$$$$$$",
"        ........########........&&&&&&&&%%%%%%%%%%%%%%%%&&&&&&&&&&&&&&&&********........########........................$$$$$$$$",
"        ........########........&&&&&&&&%%%%%%%%%%%%%%%%&&&&&&&&&&&&&&&&********........########........................$$$$$$$$",
"        ........########........&&&&&&&&%%%%%%%%%%%%%%%%&&&&&&&&&&&&&&&&********........########........................$$$$$$$$",
"................********&&&&&&&&%%%%%%%%%%%%%%%%========&&&&&&&&&&&&&&&&&&&&&&&&&&&&&&&&********........++++++++++++++++........",
"................********&&&&&&&&%%%%%%%%%%%%%%%%========&&&&&&&&&&&&&&&&&&&&&&&&&&&&&&&&********........++++++++++++++++........",
"................********&&&&&&&&%%%%%%%%%%%%%%%%========&&&&&&&&&&&&&&&&&&&&&&&&&&&&&&&&********........++++++++++++++++........",
"................********&&&&&&&&%%%%%%%%%%%%%%%%========&&&&&&&&&&&&&&&&&&&&&&&&&&&&&&&&********........++++++++++++++++........",
"................********&&&&&&&&%%%%%%%%%%%%%%%%========&&&&&&&&&&&&&&&&&&&&&&&&&&&&&&&&********........++++++++++++++++........",
"................********&&&&&&&&%%%%%%%%%%%%%%%%========&&&&&&&&&&&&&&&&&&&&&&&&&&&&&&&&********........++++++++++++++++........",
"................********&&&&&&&&%%%%%%%%%%%%%%%%========&&&&&&&&&&&&&&&&&&&&&&&&&&&&&&&&********........++++++++++++++++........",
"................********&&&&&&&&%%%%%%%%%%%%%%%%========&&&&&&&&&&&&&&&&&&&&&&&&&&&&&&&&********........++++++++++++++++........",
"@@@@@@@@########........&&&&&&&&%%%%%%%%========&&&&&&&&&&&&&&&&%%%%%%%%%%%%%%%%%%%%%%%%&&&&&&&&........########@@@@@@@@........",
"@@@@@@@@########........&&&&&&&&%%%%%%%%========&&&&&&&&&&&&&&&&%%%%%%%%%%%%%%%%%%%%%%%%&&&&&&&&........########@@@@@@@@........",
"@@@@@@@@########........&&&&&&&&%%%%%%%%========&&&&&&&&&&&&&&&&%%%%%%%%%%%%%%%%%%%%%%%%&&&&&&&&........########@@@@@@@@........",
"@@@@@@@@########........&&&&&&&&%%%%%%%%========&&&&&&&&&&&&&&&&%%%%%%%%%%%%%%%%%%%%%%%%&&&&&&&&........########@@@@@@@@........",
"@@@@@@@@########........&&&&&&&&%%%%%%%%========&&&&&&&&&&&&&&&&%%%%%%%%%%%%%%%%%%%%%%%%&&&&&&&&........########@@@@@@@@........",
"@@@@@@@@########........&&&&&&&&%%%%%%%%========&&&&&&&&&&&&&&&&%%%%%%%%%%%%%%%%%%%%%%%%&&&&&&&&........########@@@@@@@@........",
"@@@@@@@@########........&&&&&&&&%%%%%%%%========&&&&&&&&&&&&&&&&%%%%%%%%%%%%%%%%%%%%%%%%&&&&&&&&........########@@@@@@@@........",
"@@@@@@@@########........&&&&&&&&%%%%%%%%========&&&&&&&&&&&&&&&&%%%%%%%%%%%%%%%%%%%%%%%%&&&&&&&&........########@@@@@@@@........",
"++++++++++++++++........&&&&&&&&%%%%%%%%%%%%%%%%&&&&&&&&%%%%%%%%%%%%%%%%========%%%%%%%%&&&&&&&&********........########........",
"++++++++++++++++........&&&&&&&&%%%%%%%%%%%%%%%%&&&&&&&&%%%%%%%%%%%%%%%%========%%%%%%%%&&&&&&&&********........########........",
"++++++++++++++++........&&&&&&&&%%%%%%%%%%%%%%%%&&&&&&&&%%%%%%%%%%%%%%%%========%%%%%%%%&&&&&&&&********........########........",
"++++++++++++++++........&&&&&&&&%%%%%%%%%%%%%%%%&&&&&&&&%%%%%%%%%%%%%%%%========%%%%%%%%&&&&&&&&********........########........",
"++++++++++++++++........&&&&&&&&%%%%%%%%%%%%%%%%&&&&&&&&%%%%%%%%%%%%%%%%========%%%%%%%%&&&&&&&&********........########........",
"++++++++++++++++........&&&&&&&&%%%%%%%%%%%%%%%%&&&&&&&&%%%%%%%%%%%%%%%%========%%%%%%%%&&&&&&&&********........########........",
"++++++++++++++++........&&&&&&&&%%%%%%%%%%%%%%%%&&&&&&&&%%%%%%%%%%%%%%%%========%%%%%%%%&&&&&&&&********........########........",
"++++++++++++++++........&&&&&&&&%%%%%%%%%%%%%%%%&&&&&&&&%%%%%%%%%%%%%%%%========%%%%%%%%&&&&&&&&********........########........",
"........########........&&&&&&&&%%%%%%%%%%%%%%%%========&&&&&&&&&&&&&&&&========%%%%%%%%&&&&&&&&&&&&&&&&........++++++++++++++++",
"........########........&&&&&&&&%%%%%%%%%%%%%%%%========&&&&&&&&&&&&&&&&========%%%%%%%%&&&&&&&&&&&&&&&&........++++++++++++++++",
"........########........&&&&&&&&%%%%%%%%%%%%%%%%========&&&&&&&&&&&&&&&&========%%%%%%%%&&&&&&&&&&&&&&&&........++++++++++++++++",
"........########........&&&&&&&&%%%%%%%%%%%%%%%%========&&&&&&&&&&&&&&&&========%%%%%%%%&&&&&&&&&&&&&&&&........++++++++++++++++",
"........########........&&&&&&&&%%%%%%%%%%%%%%%%========&&&&&&&&&&&&&&&&========%%%%%%%%&&&&&&&&&&&&&&&&........++++++++++++++++",
"........########........&&&&&&&&%%%%%%%%%%%%%%%%========&&&&&&&&&&&&&&&&========%%%%%%%%&&&&&&&&&&&&&&&&........++++++++++++++++",
"........########........&&&&&&&&%%%%%%%%%%%%%%%%========&&&&&&&&&&&&&&&&========%%%%%%%%&&&&&&&&&&&&&&&&........++++++++++++++++",
"........########........&&&&&&&&%%%%%%%%%%%%%%%%========&&&&&&&&&&&&&&&&========%%%%%%%%&&&&&&&&&&&&&&&&........++++++++++++++++",
"                ........********&&&&&&&&%%%%%%%%%%%%%%%%================%%%%%%%%%%%%%%%%&&&&&&&&********........########@@@@@@@@",
"                ........********&&&&&&&&%%%%%%%%%%%%%%%%================%%%%%%%%%%%%%%%%&&&&&&&&********........########@@@@@@@@",
"                ........********&&&&&&&&%%%%%%%%%%%%%%%%================%%%%%%%%%%%%%%%%&&&&&&&&********........########@@@@@@@@",
"                ........********&&&&&&&&%%%%%%%%%%%%%%%%================%%%%%%%%%%%%%%%%&&&&&&&&********........########@@@@@@@@",
"                ........********&&&&&&&&%%%%%%%%%%%%%%%%================%%%%%%%%%%%%%%%%&&&&&&&&********........########@@@@@@@@",
"                ........********&&&&&&&&%%%%%%%%%%%%%%%%================%%%%%%%%%%%%%%%%&&&&&&&&********........########@@@@@@@@",
"                ........********&&&&&&&&%%%%%%%%%%%%%%%%================%%%%%%%%%%%%%%%%&&&&&&&&********........########@@@@@@@@",
"                ........********&&&&&&&&%%%%%%%%%%%%%%%%================%%%%%%%%%%%%%%%%&&&&&&&&********........########@@@@@@@@",
"        ................********&&&&&&&&&&&&&&&&%%%%%%%%%%%%%%%%%%%%%%%%%%%%%%%%&&&&&&&&&&&&&&&&********................########",
"        ................********&&&&&&&&&&&&&&&&%%%%%%%%%%%%%%%%%%%%%%%%%%%%%%%%&&&&&&&&&&&&&&&&********................########",
"        ................********&&&&&&&&&&&&&&&&%%%%%%%%%%%%%%%%%%%%%%%%%%%%%%%%&&&&&&&&&&&&&&&&********................########",
"        ................********&&&&&&&&&&&&&&&&%%%%%%%%%%%%%%%%%%%%%%%%%%%%%%%%&&&&&&&&&&&&&&&&********................########",
"        ................********&&&&&&&&&&&&&&&&%%%%%%%%%%%%%%%%%%%%%%%%%%%%%%%%&&&&&&&&&&&&&&&&********................########",
"        ................********&&&&&&&&&&&&&&&&%%%%%%%%%%%%%%%%%%%%%%%%%%%%%%%%&&&&&&&&&&&&&&&&********................########",
"        ................********&&&&&&&&&&&&&&&&%%%%%%%%%%%%%%%%%%%%%%%%%%%%%%%%&&&&&&&&&&&&&&&&********................########",
"        ................********&&&&&&&&&&&&&&&&%%%%%%%%%%%%%%%%%%%%%%%%%%%%%%%%&&&&&&&&&&&&&&&&********................########",
"........########@@@@@@@@........********&&&&&&&&&&&&&&&&&&&&&&&&&&&&&&&&&&&&&&&&&&&&&&&&********........@@@@@@@@########........",
"........########@@@@@@@@........********&&&&&&&&&&&&&&&&&&&&&&&&&&&&&&&&&&&&&&&&&&&&&&&&********........@@@@@@@@########........",
"........########@@@@@@@@........********&&&&&&&&&&&&&&&&&&&&&&&&&&&&&&&&&&&&&&&&&&&&&&&&********........@@@@@@@@########........",
"........########@@@@@@@@........********&&&&&&&&&&&&&&&&&&&&&&&&&&&&&&&&&&&&&&&&&&&&&&&&********........@@@@@@@@########........",
"........########@@@@@@@@........********&&&&&&&&&&&&&&&&&&&&&&&&&&&&&&&&&&&&&&&&&&&&&&&&********........@@@@@@@@########........",
"........########@@@@@@@@........********&&&&&&&&&&&&&&&&&&&&&&&&&&&&&&&&&&&&&&&&&&&&&&&&********........@@@@@@@@########........",
"........########@@@@@@@@........********&&&&&&&&&&&&&&&&&&&&&&&&&&&&&&&&&&&&&&&&&&&&&&&&********........@@@@@@@@########........",
"........########@@@@@@@@........********&&&&&&&&&&&&&&&&&&&&&&&&&&&&&&&&&&&&&&&&&&&&&&&&********........@@@@@@@@########........",
"........++++++++++++++++........................****************&&&&&&&&&&&&&&&&........................########++++++++........",
"........++++++++++++++++........................****************&&&&&&&&&&&&&&&&........................########++++++++........",
"........++++++++++++++++........................****************&&&&&&&&&&&&&&&&........................########++++++++........",
"........++++++++++++++++........................****************&&&&&&&&&&&&&&&&........................########++++++++........",
"........++++++++++++++++........................****************&&&&&&&&&&&&&&&&........................########++++++++........",
"........++++++++++++++++........................****************&&&&&&&&&&&&&&&&........................########++++++++........",
"........++++++++++++++++........................****************&&&&&&&&&&&&&&&&........................########++++++++........",
"........++++++++++++++++........................****************&&&&&&&&&&&&&&&&........................########++++++++........",
"        ........########........++++++++++++++++................................++++++++########................########........",
"        ........########........++++++++++++++++................................++++++++########................########........",
"        ........########........++++++++++++++++................................++++++++########................########........",
"        ........########........++++++++++++++++................................++++++++########................########........",
"        ........########........++++++++++++++++................................++++++++########................########........",
"        ........########........++++++++++++++++................................++++++++########................########........",
"        ........########........++++++++++++++++................................++++++++########................########........",
"        ........########........++++++++++++++++................................++++++++########................########........",
"        ########$$$$$$$$........@@@@@@@@########........########@@@@@@@@........########@@@@@@@@........$$$$$$$$$$$$$$$$$$$$$$$$",
"        ########$$$$$$$$........@@@@@@@@########........########@@@@@@@@........########@@@@@@@@........$$$$$$$$$$$$$$$$$$$$$$$$",
"        ########$$$$$$$$........@@@@@@@@########........########@@@@@@@@........########@@@@@@@@........$$$$$$$$$$$$$$$$$$$$$$$$",
"        ########$$$$$$$$........@@@@@@@@########........########@@@@@@@@........########@@@@@@@@........$$$$$$$$$$$$$$$$$$$$$$$$",
"        ########$$$$$$$$........@@@@@@@@########........########@@@@@@@@........########@@@@@@@@........$$$$$$$$$$$$$$$$$$$$$$$$",
"        ########$$$$$$$$........@@@@@@@@########........########@@@@@@@@........########@@@@@@@@........$$$$$$$$$$$$$$$$$$$$$$$$",
"        ########$$$$$$$$........@@@@@@@@########........########@@@@@@@@........########@@@@@@@@........$$$$$$$$$$$$$$$$$$$$$$$$",
"        ########$$$$$$$$........@@@@@@@@########........########@@@@@@@@........########@@@@@@@@........$$$$$$$$$$$$$$$$$$$$$$$$",
"                ########........########................++++++++++++++++................########........$$$$$$$$$$$$$$$$        ",
"                ########........########................++++++++++++++++................########........$$$$$$$$$$$$$$$$        ",
"                ########........########................++++++++++++++++................########........$$$$$$$$$$$$$$$$        ",
"                ########........########................++++++++++++++++................########........$$$$$$$$$$$$$$$$        ",
"                ########........########................++++++++++++++++................########........$$$$$$$$$$$$$$$$        ",
"                ########........########................++++++++++++++++................########........$$$$$$$$$$$$$$$$        ",
"                ########........########................++++++++++++++++................########........$$$$$$$$$$$$$$$$        ",
"                ########........########................++++++++++++++++................########........$$$$$$$$$$$$$$$$        ",
"--------                                                ........########........                                                ",
"--------                                                ........########........                                                ",
"--------                                                ........########........                                                ",
"--------                                                ........########........                                                ",
"--------                                                ........########........                                                ",
"--------                                                ........########........                                                ",
"--------                                                ........########........                                                ",
"--------                                                ........########........                                                "};
