/* XPM */
static char * exit_close_xpm[] = {
"128 128 7 1",
" 	c #887D8D",
".	c #3D003D",
"+	c #942C4B",
"@	c #C7424F",
"#	c #FFFFE0",
"$	c #B8B4B2",
"%	c #5C486A",
"        ........................++++++++++++++++................@@@@@@@@########........................$$$$$$$$        ########",
"        ........................++++++++++++++++................@@@@@@@@########........................$$$$$$$$        ########",
"        ........................++++++++++++++++................@@@@@@@@########........................$$$$$$$$        ########",
"        ........................++++++++++++++++................@@@@@@@@########........................$$$$$$$$        ########",
"        ........................++++++++++++++++................@@@@@@@@########........................$$$$$$$$        ########",
"        ........................++++++++++++++++................@@@@@@@@########........................$$$$$$$$        ########",
"        ........................++++++++++++++++................@@@@@@@@########........................$$$$$$$$        ########",
"        ........................++++++++++++++++................@@@@@@@@########........................$$$$$$$$        ########",
"........@@@@@@@@########........########@@@@@@@@................++++++++++++++++........@@@@@@@@########........$$$$$$$$        ",
"........@@@@@@@@########........########@@@@@@@@................++++++++++++++++........@@@@@@@@########........$$$$$$$$        ",
"........@@@@@@@@########........########@@@@@@@@................++++++++++++++++........@@@@@@@@########........$$$$$$$$        ",
"........@@@@@@@@########........########@@@@@@@@................++++++++++++++++........@@@@@@@@########........$$$$$$$$        ",
"........@@@@@@@@########........########@@@@@@@@................++++++++++++++++........@@@@@@@@########........$$$$$$$$        ",
"........@@@@@@@@########........########@@@@@@@@................++++++++++++++++........@@@@@@@@########........$$$$$$$$        ",
"........@@@@@@@@########........########@@@@@@@@................++++++++++++++++........@@@@@@@@########........$$$$$$$$        ",
"........@@@@@@@@########........########@@@@@@@@................++++++++++++++++........@@@@@@@@########........$$$$$$$$        ",
"........++++++++++++++++........########........$$$$$$$$$$$$$$$$........########........++++++++++++++++........$$$$$$$$########",
"........++++++++++++++++........########........$$$$$$$$$$$$$$$$........########........++++++++++++++++........$$$$$$$$########",
"........++++++++++++++++........########........$$$$$$$$$$$$$$$$........########........++++++++++++++++........$$$$$$$$########",
"........++++++++++++++++........########........$$$$$$$$$$$$$$$$........########........++++++++++++++++........$$$$$$$$########",
"........++++++++++++++++........########........$$$$$$$$$$$$$$$$........########........++++++++++++++++........$$$$$$$$########",
"........++++++++++++++++........########........$$$$$$$$$$$$$$$$........########........++++++++++++++++........$$$$$$$$########",
"........++++++++++++++++........########........$$$$$$$$$$$$$$$$........########........++++++++++++++++........$$$$$$$$########",
"........++++++++++++++++........########........$$$$$$$$$$$$$$$$........########........++++++++++++++++........$$$$$$$$########",
"        ........########........$$$$$$$$$$$$$$$$$$$$$$$$$$$$$$$$        $$$$$$$$........########........................$$$$$$$$",
"        ........########........$$$$$$$$$$$$$$$$$$$$$$$$$$$$$$$$        $$$$$$$$........########........................$$$$$$$$",
"        ........########........$$$$$$$$$$$$$$$$$$$$$$$$$$$$$$$$        $$$$$$$$........########........................$$$$$$$$",
"        ........########........$$$$$$$$$$$$$$$$$$$$$$$$$$$$$$$$        $$$$$$$$........########........................$$$$$$$$",
"        ........########........$$$$$$$$$$$$$$$$$$$$$$$$$$$$$$$$        $$$$$$$$........########........................$$$$$$$$",
"        ........########........$$$$$$$$$$$$$$$$$$$$$$$$$$$$$$$$        $$$$$$$$........########........................$$$$$$$$",
"        ........########........$$$$$$$$$$$$$$$$$$$$$$$$$$$$$$$$        $$$$$$$$........########........................$$$$$$$$",
"        ........########........$$$$$$$$$$$$$$$$$$$$$$$$$$$$$$$$        $$$$$$$$........########........................$$$$$$$$",
"................$$$$$$$$$$$$$$$$$$$$$$$$$$$$$$$$$$$$$$$$$$$$$$$$        ########$$$$$$$$$$$$$$$$........++++++++++++++++........",
"................$$$$$$$$$$$$$$$$$$$$$$$$$$$$$$$$$$$$$$$$$$$$$$$$        ########$$$$$$$$$$$$$$$$........++++++++++++++++........",
"................$$$$$$$$$$$$$$$$$$$$$$$$$$$$$$$$$$$$$$$$$$$$$$$$        ########$$$$$$$$$$$$$$$$........++++++++++++++++........",
"................$$$$$$$$$$$$$$$$$$$$$$$$$$$$$$$$$$$$$$$$$$$$$$$$        ########$$$$$$$$$$$$$$$$........++++++++++++++++........",
"................$$$$$$$$$$$$$$$$$$$$$$$$$$$$$$$$$$$$$$$$$$$$$$$$        ########$$$$$$$$$$$$$$$$........++++++++++++++++........",
"................$$$$$$$$$$$$$$$$$$$$$$$$$$$$$$$$$$$$$$$$$$$$$$$$        ########$$$$$$$$$$$$$$$$........++++++++++++++++........",
"................$$$$$$$$$$$$$$$$$$$$$$$$$$$$$$$$$$$$$$$$$$$$$$$$        ########$$$$$$$$$$$$$$$$........++++++++++++++++........",
"................$$$$$$$$$$$$$$$$$$$$$$$$$$$$$$$$$$$$$$$$$$$$$$$$        ########$$$$$$$$$$$$$$$$........++++++++++++++++........",
"@@@@@@@@########........$$$$$$$$$$$$$$$$$$$$$$$$$$$$$$$$$$$$$$$$        $$$$$$$$$$$$$$$$$$$$$$$$........########@@@@@@@@........",
"@@@@@@@@########........$$$$$$$$$$$$$$$$$$$$$$$$$$$$$$$$$$$$$$$$        $$$$$$$$$$$$$$$$$$$$$$$$........########@@@@@@@@........",
"@@@@@@@@########........$$$$$$$$$$$$$$$$$$$$$$$$$$$$$$$$$$$$$$$$        $$$$$$$$$$$$$$$$$$$$$$$$........########@@@@@@@@........",
"@@@@@@@@########........$$$$$$$$$$$$$$$$$$$$$$$$$$$$$$$$$$$$$$$$        $$$$$$$$$$$$$$$$$$$$$$$$........########@@@@@@@@........",
"@@@@@@@@########........$$$$$$$$$$$$$$$$$$$$$$$$$$$$$$$$$$$$$$$$        $$$$$$$$$$$$$$$$$$$$$$$$........########@@@@@@@@........",
"@@@@@@@@########........$$$$$$$$$$$$$$$$$$$$$$$$$$$$$$$$$$$$$$$$        $$$$$$$$$$$$$$$$$$$$$$$$........########@@@@@@@@........",
"@@@@@@@@########........$$$$$$$$$$$$$$$$$$$$$$$$$$$$$$$$$$$$$$$$        $$$$$$$$$$$$$$$$$$$$$$$$........########@@@@@@@@........",
"@@@@@@@@########........$$$$$$$$$$$$$$$$$$$$$$$$$$$$$$$$$$$$$$$$        $$$$$$$$$$$$$$$$$$$$$$$$........########@@@@@@@@........",
"++++++++++++++++........$$$$$$$$$$$$$$$$$$$$$$$$$$$$$$$$                $$$$$$$$$$$$$$$$$$$$$$$$$$$$$$$$........########........",
"++++++++++++++++........$$$$$$$$$$$$$$$$$$$$$$$$$$$$$$$$                $$$$$$$$$$$$$$$$$$$$$$$$$$$$$$$$........########........",
"++++++++++++++++........$$$$$$$$$$$$$$$$$$$$$$$$$$$$$$$$                $$$$$$$$$$$$$$$$$$$$$$$$$$$$$$$$........########........",
"++++++++++++++++........$$$$$$$$$$$$$$$$$$$$$$$$$$$$$$$$                $$$$$$$$$$$$$$$$$$$$$$$$$$$$$$$$........########........",
"++++++++++++++++........$$$$$$$$$$$$$$$$$$$$$$$$$$$$$$$$                $$$$$$$$$$$$$$$$$$$$$$$$$$$$$$$$........########........",
"++++++++++++++++........$$$$$$$$$$$$$$$$$$$$$$$$$$$$$$$$                $$$$$$$$$$$$$$$$$$$$$$$$$$$$$$$$........########........",
"++++++++++++++++........$$$$$$$$$$$$$$$$$$$$$$$$$$$$$$$$                $$$$$$$$$$$$$$$$$$$$$$$$$$$$$$$$........########........",
"++++++++++++++++........$$$$$$$$$$$$$$$$$$$$$$$$$$$$$$$$                $$$$$$$$$$$$$$$$$$$$$$$$$$$$$$$$........########........",
"........########........                                        %%%%%%%%                                ........++++++++++++++++",
"........########........                                        %%%%%%%%                                ........++++++++++++++++",
"........########........                                        %%%%%%%%                                ........++++++++++++++++",
"........########........                                        %%%%%%%%                                ........++++++++++++++++",
"........########........                                        %%%%%%%%                                ........++++++++++++++++",
"........########........                                        %%%%%%%%                                ........++++++++++++++++",
"........########........                                        %%%%%%%%                                ........++++++++++++++++",
"........########........                                        %%%%%%%%                                ........++++++++++++++++",
"                ########$$$$$$$$$$$$$$$$$$$$$$$$$$$$$$$$$$$$$$$$                ########$$$$$$$$$$$$$$$$........########@@@@@@@@",
"                ########$$$$$$$$$$$$$$$$$$$$$$$$$$$$$$$$$$$$$$$$                ########$$$$$$$$$$$$$$$$........########@@@@@@@@",
"                ########$$$$$$$$$$$$$$$$$$$$$$$$$$$$$$$$$$$$$$$$                ########$$$$$$$$$$$$$$$$........########@@@@@@@@",
"                ########$$$$$$$$$$$$$$$$$$$$$$$$$$$$$$$$$$$$$$$$                ########$$$$$$$$$$$$$$$$........########@@@@@@@@",
"                ########$$$$$$$$$$$$$$$$$$$$$$$$$$$$$$$$$$$$$$$$                ########$$$$$$$$$$$$$$$$........########@@@@@@@@",
"                ########$$$$$$$$$$$$$$$$$$$$$$$$$$$$$$$$$$$$$$$$                ########$$$$$$$$$$$$$$$$........########@@@@@@@@",
"                ########$$$$$$$$$$$$$$$$$$$$$$$$$$$$$$$$$$$$$$$$                ########$$$$$$$$$$$$$$$$........########@@@@@@@@",
"                ########$$$$$$$$$$$$$$$$$$$$$$$$$$$$$$$$$$$$$$$$                ########$$$$$$$$$$$$$$$$........########@@@@@@@@",
"        ................$$$$$$$$$$$$$$$$$$$$$$$$$$$$$$$$$$$$$$$$        ########$$$$$$$$$$$$$$$$$$$$$$$$................########",
"        ................$$$$$$$$$$$$$$$$$$$$$$$$$$$$$$$$$$$$$$$$        ########$$$$$$$$$$$$$$$$$$$$$$$$................########",
"        ................$$$$$$$$$$$$$$$$$$$$$$$$$$$$$$$$$$$$$$$$        ########$$$$$$$$$$$$$$$$$$$$$$$$................########",
"        ................$$$$$$$$$$$$$$$$$$$$$$$$$$$$$$$$$$$$$$$$        ########$$$$$$$$$$$$$$$$$$$$$$$$................########",
"        ................$$$$$$$$$$$$$$$$$$$$$$$$$$$$$$$$$$$$$$$$        ########$$$$$$$$$$$$$$$$$$$$$$$$................########",
"        ................$$$$$$$$$$$$$$$$$$$$$$$$$$$$$$$$$$$$$$$$        ########$$$$$$$$$$$$$$$$$$$$$$$$................########",
"        ................$$$$$$$$$$$$$$$$$$$$$$$$$$$$$$$$$$$$$$$$        ########$$$$$$$$$$$$$$$$$$$$$$$$................########",
"        ................$$$$$$$$$$$$$$$$$$$$$$$$$$$$$$$$$$$$$$$$        ########$$$$$$$$$$$$$$$$$$$$$$$$................########",
"........########@@@@@@@@........$$$$$$$$$$$$$$$$$$$$$$$$$$$$$$$$        ########$$$$$$$$$$$$$$$$........@@@@@@@@########........",
"........########@@@@@@@@........$$$$$$$$$$$$$$$$$$$$$$$$$$$$$$$$        ########$$$$$$$$$$$$$$$$........@@@@@@@@########........",
"........########@@@@@@@@........$$$$$$$$$$$$$$$$$$$$$$$$$$$$$$$$        ########$$$$$$$$$$$$$$$$........@@@@@@@@########........",
"........########@@@@@@@@........$$$$$$$$$$$$$$$$$$$$$$$$$$$$$$$$        ########$$$$$$$$$$$$$$$$........@@@@@@@@########........",
"........########@@@@@@@@........$$$$$$$$$$$$$$$$$$$$$$$$$$$$$$$$        ########$$$$$$$$$$$$$$$$........@@@@@@@@########........",
"........########@@@@@@@@........$$$$$$$$$$$$$$$$$$$$$$$$$$$$$$$$        ########$$$$$$$$$$$$$$$$........@@@@@@@@########........",
"........########@@@@@@@@........$$$$$$$$$$$$$$$$$$$$$$$$$$$$$$$$        ########$$$$$$$$$$$$$$$$........@@@@@@@@########........",
"........########@@@@@@@@........$$$$$$$$$$$$$$$$$$$$$$$$$$$$$$$$        ########$$$$$$$$$$$$$$$$........@@@@@@@@########........",
"........++++++++++++++++........................$$$$$$$$$$$$$$$$        $$$$$$$$........................########++++++++........",
"........++++++++++++++++........................$$$$$$$$$$$$$$$$        $$$$$$$$........................########++++++++........",
"........++++++++++++++++........................$$$$$$$$$$$$$$$$        $$$$$$$$........................########++++++++........",
"........++++++++++++++++........................$$$$$$$$$$$$$$$$        $$$$$$$$........................########++++++++........",
"........++++++++++++++++........................$$$$$$$$$$$$$$$$        $$$$$$$$........................########++++++++........",
"........++++++++++++++++........................$$$$$$$$$$$$$$$$        $$$$$$$$........................########++++++++........",
"........++++++++++++++++........................$$$$$$$$$$$$$$$$        $$$$$$$$........................########++++++++........",
"........++++++++++++++++........................$$$$$$$$$$$$$$$$        $$$$$$$$........................########++++++++........",
"        ........########........++++++++++++++++................................++++++++########................########........",
"        ........########........++++++++++++++++................................++++++++########................########........",
"        ........########........++++++++++++++++................................++++++++########................########........",
"        ........########........++++++++++++++++................................++++++++########................########........",
"        ........########........++++++++++++++++................................++++++++########................########........",
"        ........########........++++++++++++++++................................++++++++########................########........",
"        ........########........++++++++++++++++................................++++++++########................########........",
"        ........########........++++++++++++++++................................++++++++########................########........",
"        ########$$$$$$$$........@@@@@@@@########........########@@@@@@@@........########@@@@@@@@........$$$$$$$$$$$$$$$$$$$$$$$$",
"        ########$$$$$$$$........@@@@@@@@########........########@@@@@@@@........########@@@@@@@@........$$$$$$$$$$$$$$$$$$$$$$$$",
"        ########$$$$$$$$........@@@@@@@@########........########@@@@@@@@........########@@@@@@@@........$$$$$$$$$$$$$$$$$$$$$$$$",
"        ########$$$$$$$$........@@@@@@@@########........########@@@@@@@@........########@@@@@@@@........$$$$$$$$$$$$$$$$$$$$$$$$",
"        ########$$$$$$$$........@@@@@@@@########........########@@@@@@@@........########@@@@@@@@........$$$$$$$$$$$$$$$$$$$$$$$$",
"        ########$$$$$$$$........@@@@@@@@########........########@@@@@@@@........########@@@@@@@@........$$$$$$$$$$$$$$$$$$$$$$$$",
"        ########$$$$$$$$........@@@@@@@@########........########@@@@@@@@........########@@@@@@@@........$$$$$$$$$$$$$$$$$$$$$$$$",
"        ########$$$$$$$$........@@@@@@@@########........########@@@@@@@@........########@@@@@@@@........$$$$$$$$$$$$$$$$$$$$$$$$",
"                ########........########................++++++++++++++++................########........$$$$$$$$$$$$$$$$        ",
"                ########........########................++++++++++++++++................########........$$$$$$$$$$$$$$$$        ",
"                ########........########................++++++++++++++++................########........$$$$$$$$$$$$$$$$        ",
"                ########........########................++++++++++++++++................########........$$$$$$$$$$$$$$$$        ",
"                ########........########................++++++++++++++++................########........$$$$$$$$$$$$$$$$        ",
"                ########........########................++++++++++++++++................########........$$$$$$$$$$$$$$$$        ",
"                ########........########................++++++++++++++++................########........$$$$$$$$$$$$$$$$        ",
"                ########........########................++++++++++++++++................########........$$$$$$$$$$$$$$$$        ",
"%%%%%%%%                                                ........########........                                                ",
"%%%%%%%%                                                ........########........                                                ",
"%%%%%%%%                                                ........########........                                                ",
"%%%%%%%%                                                ........########........                                                ",
"%%%%%%%%                                                ........########........                                                ",
"%%%%%%%%                                                ........########........                                                ",
"%%%%%%%%                                                ........########........                                                ",
"%%%%%%%%                                                ........########........                                                "};
