/* XPM */
static char * floor_xpm[] = {
"128 128 4 1",
" 	c #887D8D",
".	c #FFFFE0",
"+	c #B8B4B2",
"@	c #5C486A",
"                ........++++++++++++++++++++++++++++++++++++++++                ........++++++++++++++++++++++++        ........",
"                ........++++++++++++++++++++++++++++++++++++++++                ........++++++++++++++++++++++++        ........",
"                ........++++++++++++++++++++++++++++++++++++++++                ........++++++++++++++++++++++++        ........",
"                ........++++++++++++++++++++++++++++++++++++++++                ........++++++++++++++++++++++++        ........",
"                ........++++++++++++++++++++++++++++++++++++++++                ........++++++++++++++++++++++++        ........",
"                ........++++++++++++++++++++++++++++++++++++++++                ........++++++++++++++++++++++++        ........",
"                ........++++++++++++++++++++++++++++++++++++++++                ........++++++++++++++++++++++++        ........",
"                ........++++++++++++++++++++++++++++++++++++++++                ........++++++++++++++++++++++++        ........",
"        ++++++++++++++++++++++++++++++++++++++++++++++++++++++++        ........++++++++++++++++++++++++++++++++++++++++        ",
"        ++++++++++++++++++++++++++++++++++++++++++++++++++++++++        ........++++++++++++++++++++++++++++++++++++++++        ",
"        ++++++++++++++++++++++++++++++++++++++++++++++++++++++++        ........++++++++++++++++++++++++++++++++++++++++        ",
"        ++++++++++++++++++++++++++++++++++++++++++++++++++++++++        ........++++++++++++++++++++++++++++++++++++++++        ",
"        ++++++++++++++++++++++++++++++++++++++++++++++++++++++++        ........++++++++++++++++++++++++++++++++++++++++        ",
"        ++++++++++++++++++++++++++++++++++++++++++++++++++++++++        ........++++++++++++++++++++++++++++++++++++++++        ",
"        ++++++++++++++++++++++++++++++++++++++++++++++++++++++++        ........++++++++++++++++++++++++++++++++++++++++        ",
"        ++++++++++++++++++++++++++++++++++++++++++++++++++++++++        ........++++++++++++++++++++++++++++++++++++++++        ",
"        ++++++++++++++++++++++++++++++++++++++++++++++++++++++++        ........++++++++++++++++++++++++++++++++++++++++........",
"        ++++++++++++++++++++++++++++++++++++++++++++++++++++++++        ........++++++++++++++++++++++++++++++++++++++++........",
"        ++++++++++++++++++++++++++++++++++++++++++++++++++++++++        ........++++++++++++++++++++++++++++++++++++++++........",
"        ++++++++++++++++++++++++++++++++++++++++++++++++++++++++        ........++++++++++++++++++++++++++++++++++++++++........",
"        ++++++++++++++++++++++++++++++++++++++++++++++++++++++++        ........++++++++++++++++++++++++++++++++++++++++........",
"        ++++++++++++++++++++++++++++++++++++++++++++++++++++++++        ........++++++++++++++++++++++++++++++++++++++++........",
"        ++++++++++++++++++++++++++++++++++++++++++++++++++++++++        ........++++++++++++++++++++++++++++++++++++++++........",
"        ++++++++++++++++++++++++++++++++++++++++++++++++++++++++        ........++++++++++++++++++++++++++++++++++++++++........",
"        ++++++++++++++++++++++++++++++++++++++++++++++++++++++++        ++++++++++++++++++++++++++++++++++++++++++++++++++++++++",
"        ++++++++++++++++++++++++++++++++++++++++++++++++++++++++        ++++++++++++++++++++++++++++++++++++++++++++++++++++++++",
"        ++++++++++++++++++++++++++++++++++++++++++++++++++++++++        ++++++++++++++++++++++++++++++++++++++++++++++++++++++++",
"        ++++++++++++++++++++++++++++++++++++++++++++++++++++++++        ++++++++++++++++++++++++++++++++++++++++++++++++++++++++",
"        ++++++++++++++++++++++++++++++++++++++++++++++++++++++++        ++++++++++++++++++++++++++++++++++++++++++++++++++++++++",
"        ++++++++++++++++++++++++++++++++++++++++++++++++++++++++        ++++++++++++++++++++++++++++++++++++++++++++++++++++++++",
"        ++++++++++++++++++++++++++++++++++++++++++++++++++++++++        ++++++++++++++++++++++++++++++++++++++++++++++++++++++++",
"        ++++++++++++++++++++++++++++++++++++++++++++++++++++++++        ++++++++++++++++++++++++++++++++++++++++++++++++++++++++",
"        ++++++++++++++++++++++++++++++++++++++++++++++++++++++++        ........++++++++++++++++++++++++++++++++++++++++++++++++",
"        ++++++++++++++++++++++++++++++++++++++++++++++++++++++++        ........++++++++++++++++++++++++++++++++++++++++++++++++",
"        ++++++++++++++++++++++++++++++++++++++++++++++++++++++++        ........++++++++++++++++++++++++++++++++++++++++++++++++",
"        ++++++++++++++++++++++++++++++++++++++++++++++++++++++++        ........++++++++++++++++++++++++++++++++++++++++++++++++",
"        ++++++++++++++++++++++++++++++++++++++++++++++++++++++++        ........++++++++++++++++++++++++++++++++++++++++++++++++",
"        ++++++++++++++++++++++++++++++++++++++++++++++++++++++++        ........++++++++++++++++++++++++++++++++++++++++++++++++",
"        ++++++++++++++++++++++++++++++++++++++++++++++++++++++++        ........++++++++++++++++++++++++++++++++++++++++++++++++",
"        ++++++++++++++++++++++++++++++++++++++++++++++++++++++++        ........++++++++++++++++++++++++++++++++++++++++++++++++",
"        ++++++++++++++++++++++++++++++++++++++++++++++++++++++++        ++++++++++++++++++++++++++++++++++++++++++++++++++++++++",
"        ++++++++++++++++++++++++++++++++++++++++++++++++++++++++        ++++++++++++++++++++++++++++++++++++++++++++++++++++++++",
"        ++++++++++++++++++++++++++++++++++++++++++++++++++++++++        ++++++++++++++++++++++++++++++++++++++++++++++++++++++++",
"        ++++++++++++++++++++++++++++++++++++++++++++++++++++++++        ++++++++++++++++++++++++++++++++++++++++++++++++++++++++",
"        ++++++++++++++++++++++++++++++++++++++++++++++++++++++++        ++++++++++++++++++++++++++++++++++++++++++++++++++++++++",
"        ++++++++++++++++++++++++++++++++++++++++++++++++++++++++        ++++++++++++++++++++++++++++++++++++++++++++++++++++++++",
"        ++++++++++++++++++++++++++++++++++++++++++++++++++++++++        ++++++++++++++++++++++++++++++++++++++++++++++++++++++++",
"        ++++++++++++++++++++++++++++++++++++++++++++++++++++++++        ++++++++++++++++++++++++++++++++++++++++++++++++++++++++",
"                ++++++++++++++++++++++++++++++++++++++++                ++++++++++++++++++++++++++++++++++++++++++++++++        ",
"                ++++++++++++++++++++++++++++++++++++++++                ++++++++++++++++++++++++++++++++++++++++++++++++        ",
"                ++++++++++++++++++++++++++++++++++++++++                ++++++++++++++++++++++++++++++++++++++++++++++++        ",
"                ++++++++++++++++++++++++++++++++++++++++                ++++++++++++++++++++++++++++++++++++++++++++++++        ",
"                ++++++++++++++++++++++++++++++++++++++++                ++++++++++++++++++++++++++++++++++++++++++++++++        ",
"                ++++++++++++++++++++++++++++++++++++++++                ++++++++++++++++++++++++++++++++++++++++++++++++        ",
"                ++++++++++++++++++++++++++++++++++++++++                ++++++++++++++++++++++++++++++++++++++++++++++++        ",
"                ++++++++++++++++++++++++++++++++++++++++                ++++++++++++++++++++++++++++++++++++++++++++++++        ",
"@@@@@@@@                                                        @@@@@@@@                                                        ",
"@@@@@@@@                                                        @@@@@@@@                                                        ",
"@@@@@@@@                                                        @@@@@@@@                                                        ",
"@@@@@@@@                                                        @@@@@@@@                                                        ",
"@@@@@@@@                                                        @@@@@@@@                                                        ",
"@@@@@@@@                                                        @@@@@@@@                                                        ",
"@@@@@@@@                                                        @@@@@@@@                                                        ",
"@@@@@@@@                                                        @@@@@@@@                                                        ",
"                ........++++++++++++++++++++++++++++++++++++++++                ........++++++++++++++++++++++++++++++++++++++++",
"                ........++++++++++++++++++++++++++++++++++++++++                ........++++++++++++++++++++++++++++++++++++++++",
"                ........++++++++++++++++++++++++++++++++++++++++                ........++++++++++++++++++++++++++++++++++++++++",
"                ........++++++++++++++++++++++++++++++++++++++++                ........++++++++++++++++++++++++++++++++++++++++",
"                ........++++++++++++++++++++++++++++++++++++++++                ........++++++++++++++++++++++++++++++++++++++++",
"                ........++++++++++++++++++++++++++++++++++++++++                ........++++++++++++++++++++++++++++++++++++++++",
"                ........++++++++++++++++++++++++++++++++++++++++                ........++++++++++++++++++++++++++++++++++++++++",
"                ........++++++++++++++++++++++++++++++++++++++++                ........++++++++++++++++++++++++++++++++++++++++",
"        ........++++++++++++++++++++++++++++++++++++++++++++++++        ........++++++++++++++++++++++++++++++++++++++++++++++++",
"        ........++++++++++++++++++++++++++++++++++++++++++++++++        ........++++++++++++++++++++++++++++++++++++++++++++++++",
"        ........++++++++++++++++++++++++++++++++++++++++++++++++        ........++++++++++++++++++++++++++++++++++++++++++++++++",
"        ........++++++++++++++++++++++++++++++++++++++++++++++++        ........++++++++++++++++++++++++++++++++++++++++++++++++",
"        ........++++++++++++++++++++++++++++++++++++++++++++++++        ........++++++++++++++++++++++++++++++++++++++++++++++++",
"        ........++++++++++++++++++++++++++++++++++++++++++++++++        ........++++++++++++++++++++++++++++++++++++++++++++++++",
"        ........++++++++++++++++++++++++++++++++++++++++++++++++        ........++++++++++++++++++++++++++++++++++++++++++++++++",
"        ........++++++++++++++++++++++++++++++++++++++++++++++++        ........++++++++++++++++++++++++++++++++++++++++++++++++",
"        ++++++++++++++++++++++++++++++++++++++++++++++++++++++++        ........++++++++++++++++++++++++++++++++++++++++++++++++",
"        ++++++++++++++++++++++++++++++++++++++++++++++++++++++++        ........++++++++++++++++++++++++++++++++++++++++++++++++",
"        ++++++++++++++++++++++++++++++++++++++++++++++++++++++++        ........++++++++++++++++++++++++++++++++++++++++++++++++",
"        ++++++++++++++++++++++++++++++++++++++++++++++++++++++++        ........++++++++++++++++++++++++++++++++++++++++++++++++",
"        ++++++++++++++++++++++++++++++++++++++++++++++++++++++++        ........++++++++++++++++++++++++++++++++++++++++++++++++",
"        ++++++++++++++++++++++++++++++++++++++++++++++++++++++++        ........++++++++++++++++++++++++++++++++++++++++++++++++",
"        ++++++++++++++++++++++++++++++++++++++++++++++++++++++++        ........++++++++++++++++++++++++++++++++++++++++++++++++",
"        ++++++++++++++++++++++++++++++++++++++++++++++++++++++++        ........++++++++++++++++++++++++++++++++++++++++++++++++",
"        ++++++++++++++++++++++++++++++++++++++++++++++++++++++++        ++++++++++++++++++++++++++++++++++++++++++++++++++++++++",
"        ++++++++++++++++++++++++++++++++++++++++++++++++++++++++        ++++++++++++++++++++++++++++++++++++++++++++++++++++++++",
"        ++++++++++++++++++++++++++++++++++++++++++++++++++++++++        ++++++++++++++++++++++++++++++++++++++++++++++++++++++++",
"        ++++++++++++++++++++++++++++++++++++++++++++++++++++++++        ++++++++++++++++++++++++++++++++++++++++++++++++++++++++",
"        ++++++++++++++++++++++++++++++++++++++++++++++++++++++++        ++++++++++++++++++++++++++++++++++++++++++++++++++++++++",
"        ++++++++++++++++++++++++++++++++++++++++++++++++++++++++        ++++++++++++++++++++++++++++++++++++++++++++++++++++++++",
"        ++++++++++++++++++++++++++++++++++++++++++++++++++++++++        ++++++++++++++++++++++++++++++++++++++++++++++++++++++++",
"        ++++++++++++++++++++++++++++++++++++++++++++++++++++++++        ++++++++++++++++++++++++++++++++++++++++++++++++++++++++",
"        ++++++++++++++++++++++++++++++++++++++++++++++++++++++++        ........++++++++++++++++++++++++++++++++++++++++++++++++",
"        ++++++++++++++++++++++++++++++++++++++++++++++++++++++++        ........++++++++++++++++++++++++++++++++++++++++++++++++",
"        ++++++++++++++++++++++++++++++++++++++++++++++++++++++++        ........++++++++++++++++++++++++++++++++++++++++++++++++",
"        ++++++++++++++++++++++++++++++++++++++++++++++++++++++++        ........++++++++++++++++++++++++++++++++++++++++++++++++",
"        ++++++++++++++++++++++++++++++++++++++++++++++++++++++++        ........++++++++++++++++++++++++++++++++++++++++++++++++",
"        ++++++++++++++++++++++++++++++++++++++++++++++++++++++++        ........++++++++++++++++++++++++++++++++++++++++++++++++",
"        ++++++++++++++++++++++++++++++++++++++++++++++++++++++++        ........++++++++++++++++++++++++++++++++++++++++++++++++",
"        ++++++++++++++++++++++++++++++++++++++++++++++++++++++++        ........++++++++++++++++++++++++++++++++++++++++++++++++",
"        ........++++++++++++++++++++++++++++++++++++++++++++++++        ++++++++++++++++++++++++++++++++++++++++++++++++++++++++",
"        ........++++++++++++++++++++++++++++++++++++++++++++++++        ++++++++++++++++++++++++++++++++++++++++++++++++++++++++",
"        ........++++++++++++++++++++++++++++++++++++++++++++++++        ++++++++++++++++++++++++++++++++++++++++++++++++++++++++",
"        ........++++++++++++++++++++++++++++++++++++++++++++++++        ++++++++++++++++++++++++++++++++++++++++++++++++++++++++",
"        ........++++++++++++++++++++++++++++++++++++++++++++++++        ++++++++++++++++++++++++++++++++++++++++++++++++++++++++",
"        ........++++++++++++++++++++++++++++++++++++++++++++++++        ++++++++++++++++++++++++++++++++++++++++++++++++++++++++",
"        ........++++++++++++++++++++++++++++++++++++++++++++++++        ++++++++++++++++++++++++++++++++++++++++++++++++++++++++",
"        ........++++++++++++++++++++++++++++++++++++++++++++++++        ++++++++++++++++++++++++++++++++++++++++++++++++++++++++",
"                ........++++++++++++++++++++++++++++++++                        ++++++++++++++++++++++++++++++++++++++++        ",
"                ........++++++++++++++++++++++++++++++++                        ++++++++++++++++++++++++++++++++++++++++        ",
"                ........++++++++++++++++++++++++++++++++                        ++++++++++++++++++++++++++++++++++++++++        ",
"                ........++++++++++++++++++++++++++++++++                        ++++++++++++++++++++++++++++++++++++++++        ",
"                ........++++++++++++++++++++++++++++++++                        ++++++++++++++++++++++++++++++++++++++++        ",
"                ........++++++++++++++++++++++++++++++++                        ++++++++++++++++++++++++++++++++++++++++        ",
"                ........++++++++++++++++++++++++++++++++                        ++++++++++++++++++++++++++++++++++++++++        ",
"                ........++++++++++++++++++++++++++++++++                        ++++++++++++++++++++++++++++++++++++++++        ",
"@@@@@@@@                                                        @@@@@@@@                                                        ",
"@@@@@@@@                                                        @@@@@@@@                                                        ",
"@@@@@@@@                                                        @@@@@@@@                                                        ",
"@@@@@@@@                                                        @@@@@@@@                                                        ",
"@@@@@@@@                                                        @@@@@@@@                                                        ",
"@@@@@@@@                                                        @@@@@@@@                                                        ",
"@@@@@@@@                                                        @@@@@@@@                                                        ",
"@@@@@@@@                                                        @@@@@@@@                                                        "};
