/* XPM */
static char * floor2_xpm[] = {
"128 128 6 1",
" 	c #658D78",
".	c #80B878",
"+	c #B8B4B2",
"@	c #FFFFE0",
"#	c #887D8D",
"$	c #5C486A",
"                ........                        ........                ................                                ........",
"                ........                        ........                ................                                ........",
"                ........                        ........                ................                                ........",
"                ........                        ........                ................                                ........",
"                ........                        ........                ................                                ........",
"                ........                        ........                ................                                ........",
"                ........                        ........                ................                                ........",
"                ........                        ........                ................                                ........",
"        ........++++++++........................++++++++........        @@@@@@@@++++++++........        ................########",
"        ........++++++++........................++++++++........        @@@@@@@@++++++++........        ................########",
"        ........++++++++........................++++++++........        @@@@@@@@++++++++........        ................########",
"        ........++++++++........................++++++++........        @@@@@@@@++++++++........        ................########",
"        ........++++++++........................++++++++........        @@@@@@@@++++++++........        ................########",
"        ........++++++++........................++++++++........        @@@@@@@@++++++++........        ................########",
"        ........++++++++........................++++++++........        @@@@@@@@++++++++........        ................########",
"        ........++++++++........................++++++++........        @@@@@@@@++++++++........        ................########",
"........++++++++++++++++++++++++++++++++++++++++++++++++++++++++........@@@@@@@@++++++++++++++++........++++++++++++++++@@@@@@@@",
"........++++++++++++++++++++++++++++++++++++++++++++++++++++++++........@@@@@@@@++++++++++++++++........++++++++++++++++@@@@@@@@",
"........++++++++++++++++++++++++++++++++++++++++++++++++++++++++........@@@@@@@@++++++++++++++++........++++++++++++++++@@@@@@@@",
"........++++++++++++++++++++++++++++++++++++++++++++++++++++++++........@@@@@@@@++++++++++++++++........++++++++++++++++@@@@@@@@",
"........++++++++++++++++++++++++++++++++++++++++++++++++++++++++........@@@@@@@@++++++++++++++++........++++++++++++++++@@@@@@@@",
"........++++++++++++++++++++++++++++++++++++++++++++++++++++++++........@@@@@@@@++++++++++++++++........++++++++++++++++@@@@@@@@",
"........++++++++++++++++++++++++++++++++++++++++++++++++++++++++........@@@@@@@@++++++++++++++++........++++++++++++++++@@@@@@@@",
"........++++++++++++++++++++++++++++++++++++++++++++++++++++++++........@@@@@@@@++++++++++++++++........++++++++++++++++@@@@@@@@",
"########++++++++++++++++++++++++++++++++++++++++++++++++++++++++########++++++++++++++++++++++++++++++++++++++++++++++++++++++++",
"########++++++++++++++++++++++++++++++++++++++++++++++++++++++++########++++++++++++++++++++++++++++++++++++++++++++++++++++++++",
"########++++++++++++++++++++++++++++++++++++++++++++++++++++++++########++++++++++++++++++++++++++++++++++++++++++++++++++++++++",
"########++++++++++++++++++++++++++++++++++++++++++++++++++++++++########++++++++++++++++++++++++++++++++++++++++++++++++++++++++",
"########++++++++++++++++++++++++++++++++++++++++++++++++++++++++########++++++++++++++++++++++++++++++++++++++++++++++++++++++++",
"########++++++++++++++++++++++++++++++++++++++++++++++++++++++++########++++++++++++++++++++++++++++++++++++++++++++++++++++++++",
"########++++++++++++++++++++++++++++++++++++++++++++++++++++++++########++++++++++++++++++++++++++++++++++++++++++++++++++++++++",
"########++++++++++++++++++++++++++++++++++++++++++++++++++++++++########++++++++++++++++++++++++++++++++++++++++++++++++++++++++",
"########++++++++++++++++++++++++++++++++++++++++++++++++++++++++########@@@@@@@@++++++++++++++++++++++++++++++++++++++++++++++++",
"########++++++++++++++++++++++++++++++++++++++++++++++++++++++++########@@@@@@@@++++++++++++++++++++++++++++++++++++++++++++++++",
"########++++++++++++++++++++++++++++++++++++++++++++++++++++++++########@@@@@@@@++++++++++++++++++++++++++++++++++++++++++++++++",
"########++++++++++++++++++++++++++++++++++++++++++++++++++++++++########@@@@@@@@++++++++++++++++++++++++++++++++++++++++++++++++",
"########++++++++++++++++++++++++++++++++++++++++++++++++++++++++########@@@@@@@@++++++++++++++++++++++++++++++++++++++++++++++++",
"########++++++++++++++++++++++++++++++++++++++++++++++++++++++++########@@@@@@@@++++++++++++++++++++++++++++++++++++++++++++++++",
"########++++++++++++++++++++++++++++++++++++++++++++++++++++++++########@@@@@@@@++++++++++++++++++++++++++++++++++++++++++++++++",
"########++++++++++++++++++++++++++++++++++++++++++++++++++++++++########@@@@@@@@++++++++++++++++++++++++++++++++++++++++++++++++",
"########++++++++++++++++++++++++++++++++++++++++++++++++++++++++########++++++++++++++++++++++++++++++++++++++++++++++++++++++++",
"########++++++++++++++++++++++++++++++++++++++++++++++++++++++++########++++++++++++++++++++++++++++++++++++++++++++++++++++++++",
"########++++++++++++++++++++++++++++++++++++++++++++++++++++++++########++++++++++++++++++++++++++++++++++++++++++++++++++++++++",
"########++++++++++++++++++++++++++++++++++++++++++++++++++++++++########++++++++++++++++++++++++++++++++++++++++++++++++++++++++",
"########++++++++++++++++++++++++++++++++++++++++++++++++++++++++########++++++++++++++++++++++++++++++++++++++++++++++++++++++++",
"########++++++++++++++++++++++++++++++++++++++++++++++++++++++++########++++++++++++++++++++++++++++++++++++++++++++++++++++++++",
"########++++++++++++++++++++++++++++++++++++++++++++++++++++++++########++++++++++++++++++++++++++++++++++++++++++++++++++++++++",
"########++++++++++++++++++++++++++++++++++++++++++++++++++++++++########++++++++++++++++++++++++++++++++++++++++++++++++++++++++",
"################++++++++++++++++++++++++++++++++++++++++################++++++++++++++++++++++++++++++++++++++++++++++++########",
"################++++++++++++++++++++++++++++++++++++++++################++++++++++++++++++++++++++++++++++++++++++++++++########",
"################++++++++++++++++++++++++++++++++++++++++################++++++++++++++++++++++++++++++++++++++++++++++++########",
"################++++++++++++++++++++++++++++++++++++++++################++++++++++++++++++++++++++++++++++++++++++++++++########",
"################++++++++++++++++++++++++++++++++++++++++################++++++++++++++++++++++++++++++++++++++++++++++++########",
"################++++++++++++++++++++++++++++++++++++++++################++++++++++++++++++++++++++++++++++++++++++++++++########",
"################++++++++++++++++++++++++++++++++++++++++################++++++++++++++++++++++++++++++++++++++++++++++++########",
"################++++++++++++++++++++++++++++++++++++++++################++++++++++++++++++++++++++++++++++++++++++++++++########",
"$$$$$$$$########################################################$$$$$$$$########################################################",
"$$$$$$$$########################################################$$$$$$$$########################################################",
"$$$$$$$$########################################################$$$$$$$$########################################################",
"$$$$$$$$########################################################$$$$$$$$########################################################",
"$$$$$$$$########################################################$$$$$$$$########################################################",
"$$$$$$$$########################################################$$$$$$$$########################################################",
"$$$$$$$$########################################################$$$$$$$$########################################################",
"$$$$$$$$########################################################$$$$$$$$########################################################",
"################@@@@@@@@++++++++++++++++++++++++++++++++++++++++################@@@@@@@@++++++++++++++++++++++++++++++++++++++++",
"################@@@@@@@@++++++++++++++++++++++++++++++++++++++++################@@@@@@@@++++++++++++++++++++++++++++++++++++++++",
"################@@@@@@@@++++++++++++++++++++++++++++++++++++++++################@@@@@@@@++++++++++++++++++++++++++++++++++++++++",
"################@@@@@@@@++++++++++++++++++++++++++++++++++++++++################@@@@@@@@++++++++++++++++++++++++++++++++++++++++",
"################@@@@@@@@++++++++++++++++++++++++++++++++++++++++################@@@@@@@@++++++++++++++++++++++++++++++++++++++++",
"################@@@@@@@@++++++++++++++++++++++++++++++++++++++++################@@@@@@@@++++++++++++++++++++++++++++++++++++++++",
"################@@@@@@@@++++++++++++++++++++++++++++++++++++++++################@@@@@@@@++++++++++++++++++++++++++++++++++++++++",
"################@@@@@@@@++++++++++++++++++++++++++++++++++++++++################@@@@@@@@++++++++++++++++++++++++++++++++++++++++",
"########@@@@@@@@++++++++++++++++++++++++++++++++++++++++++++++++########@@@@@@@@++++++++++++++++++++++++++++++++++++++++++++++++",
"########@@@@@@@@++++++++++++++++++++++++++++++++++++++++++++++++########@@@@@@@@++++++++++++++++++++++++++++++++++++++++++++++++",
"########@@@@@@@@++++++++++++++++++++++++++++++++++++++++++++++++########@@@@@@@@++++++++++++++++++++++++++++++++++++++++++++++++",
"########@@@@@@@@++++++++++++++++++++++++++++++++++++++++++++++++########@@@@@@@@++++++++++++++++++++++++++++++++++++++++++++++++",
"########@@@@@@@@++++++++++++++++++++++++++++++++++++++++++++++++########@@@@@@@@++++++++++++++++++++++++++++++++++++++++++++++++",
"########@@@@@@@@++++++++++++++++++++++++++++++++++++++++++++++++########@@@@@@@@++++++++++++++++++++++++++++++++++++++++++++++++",
"########@@@@@@@@++++++++++++++++++++++++++++++++++++++++++++++++########@@@@@@@@++++++++++++++++++++++++++++++++++++++++++++++++",
"########@@@@@@@@++++++++++++++++++++++++++++++++++++++++++++++++########@@@@@@@@++++++++++++++++++++++++++++++++++++++++++++++++",
"########++++++++++++++++++++++++++++++++++++++++++++++++++++++++########@@@@@@@@++++++++++++++++++++++++++++++++++++++++++++++++",
"########++++++++++++++++++++++++++++++++++++++++++++++++++++++++########@@@@@@@@++++++++++++++++++++++++++++++++++++++++++++++++",
"########++++++++++++++++++++++++++++++++++++++++++++++++++++++++########@@@@@@@@++++++++++++++++++++++++++++++++++++++++++++++++",
"########++++++++++++++++++++++++++++++++++++++++++++++++++++++++########@@@@@@@@++++++++++++++++++++++++++++++++++++++++++++++++",
"########++++++++++++++++++++++++++++++++++++++++++++++++++++++++########@@@@@@@@++++++++++++++++++++++++++++++++++++++++++++++++",
"########++++++++++++++++++++++++++++++++++++++++++++++++++++++++########@@@@@@@@++++++++++++++++++++++++++++++++++++++++++++++++",
"########++++++++++++++++++++++++++++++++++++++++++++++++++++++++########@@@@@@@@++++++++++++++++++++++++++++++++++++++++++++++++",
"########++++++++++++++++++++++++++++++++++++++++++++++++++++++++########@@@@@@@@++++++++++++++++++++++++++++++++++++++++++++++++",
"########++++++++++++++++++++++++++++++++++++++++++++++++++++++++########++++++++++++++++++++++++++++++++++++++++++++++++++++++++",
"########++++++++++++++++++++++++++++++++++++++++++++++++++++++++########++++++++++++++++++++++++++++++++++++++++++++++++++++++++",
"########++++++++++++++++++++++++++++++++++++++++++++++++++++++++########++++++++++++++++++++++++++++++++++++++++++++++++++++++++",
"########++++++++++++++++++++++++++++++++++++++++++++++++++++++++########++++++++++++++++++++++++++++++++++++++++++++++++++++++++",
"########++++++++++++++++++++++++++++++++++++++++++++++++++++++++########++++++++++++++++++++++++++++++++++++++++++++++++++++++++",
"########++++++++++++++++++++++++++++++++++++++++++++++++++++++++########++++++++++++++++++++++++++++++++++++++++++++++++++++++++",
"########++++++++++++++++++++++++++++++++++++++++++++++++++++++++########++++++++++++++++++++++++++++++++++++++++++++++++++++++++",
"########++++++++++++++++++++++++++++++++++++++++++++++++++++++++########++++++++++++++++++++++++++++++++++++++++++++++++++++++++",
"########++++++++++++++++++++++++++++++++++++++++++++++++++++++++########@@@@@@@@++++++++++++++++++++++++++++++++++++++++++++++++",
"########++++++++++++++++++++++++++++++++++++++++++++++++++++++++########@@@@@@@@++++++++++++++++++++++++++++++++++++++++++++++++",
"########++++++++++++++++++++++++++++++++++++++++++++++++++++++++########@@@@@@@@++++++++++++++++++++++++++++++++++++++++++++++++",
"########++++++++++++++++++++++++++++++++++++++++++++++++++++++++########@@@@@@@@++++++++++++++++++++++++++++++++++++++++++++++++",
"########++++++++++++++++++++++++++++++++++++++++++++++++++++++++########@@@@@@@@++++++++++++++++++++++++++++++++++++++++++++++++",
"########++++++++++++++++++++++++++++++++++++++++++++++++++++++++########@@@@@@@@++++++++++++++++++++++++++++++++++++++++++++++++",
"########++++++++++++++++++++++++++++++++++++++++++++++++++++++++########@@@@@@@@++++++++++++++++++++++++++++++++++++++++++++++++",
"########++++++++++++++++++++++++++++++++++++++++++++++++++++++++########@@@@@@@@++++++++++++++++++++++++++++++++++++++++++++++++",
"########@@@@@@@@++++++++++++++++++++++++++++++++++++++++++++++++########++++++++++++++++++++++++++++++++++++++++++++++++++++++++",
"########@@@@@@@@++++++++++++++++++++++++++++++++++++++++++++++++########++++++++++++++++++++++++++++++++++++++++++++++++++++++++",
"########@@@@@@@@++++++++++++++++++++++++++++++++++++++++++++++++########++++++++++++++++++++++++++++++++++++++++++++++++++++++++",
"########@@@@@@@@++++++++++++++++++++++++++++++++++++++++++++++++########++++++++++++++++++++++++++++++++++++++++++++++++++++++++",
"########@@@@@@@@++++++++++++++++++++++++++++++++++++++++++++++++########++++++++++++++++++++++++++++++++++++++++++++++++++++++++",
"########@@@@@@@@++++++++++++++++++++++++++++++++++++++++++++++++########++++++++++++++++++++++++++++++++++++++++++++++++++++++++",
"########@@@@@@@@++++++++++++++++++++++++++++++++++++++++++++++++########++++++++++++++++++++++++++++++++++++++++++++++++++++++++",
"########@@@@@@@@++++++++++++++++++++++++++++++++++++++++++++++++########++++++++++++++++++++++++++++++++++++++++++++++++++++++++",
"################@@@@@@@@++++++++++++++++++++++++++++++++########################++++++++++++++++++++++++++++++++++++++++########",
"################@@@@@@@@++++++++++++++++++++++++++++++++########################++++++++++++++++++++++++++++++++++++++++########",
"################@@@@@@@@++++++++++++++++++++++++++++++++########################++++++++++++++++++++++++++++++++++++++++########",
"################@@@@@@@@++++++++++++++++++++++++++++++++########################++++++++++++++++++++++++++++++++++++++++########",
"################@@@@@@@@++++++++++++++++++++++++++++++++########################++++++++++++++++++++++++++++++++++++++++########",
"################@@@@@@@@++++++++++++++++++++++++++++++++########################++++++++++++++++++++++++++++++++++++++++########",
"################@@@@@@@@++++++++++++++++++++++++++++++++########################++++++++++++++++++++++++++++++++++++++++########",
"################@@@@@@@@++++++++++++++++++++++++++++++++########################++++++++++++++++++++++++++++++++++++++++########",
"$$$$$$$$########################################################$$$$$$$$########################################################",
"$$$$$$$$########################################################$$$$$$$$########################################################",
"$$$$$$$$########################################################$$$$$$$$########################################################",
"$$$$$$$$########################################################$$$$$$$$########################################################",
"$$$$$$$$########################################################$$$$$$$$########################################################",
"$$$$$$$$########################################################$$$$$$$$########################################################",
"$$$$$$$$########################################################$$$$$$$$########################################################",
"$$$$$$$$########################################################$$$$$$$$########################################################"};
