/* XPM */
static char * gandalf_xpm[] = {
"128 128 8 1",
" 	c #887D8D",
".	c #FFFFE0",
"+	c #B8B4B2",
"@	c #44355D",
"#	c #5C486A",
"$	c #A14D55",
"%	c #89D9D9",
"&	c #E3A084",
"        ................++++++++........++++++++++++++++@@@@@@@@@@@@@@@@@@@@@@@@@@@@@@@@++++++++++++++++++++++++        ++++++++",
"        ................++++++++........++++++++++++++++@@@@@@@@@@@@@@@@@@@@@@@@@@@@@@@@++++++++++++++++++++++++        ++++++++",
"        ................++++++++........++++++++++++++++@@@@@@@@@@@@@@@@@@@@@@@@@@@@@@@@++++++++++++++++++++++++        ++++++++",
"        ................++++++++........++++++++++++++++@@@@@@@@@@@@@@@@@@@@@@@@@@@@@@@@++++++++++++++++++++++++        ++++++++",
"        ................++++++++........++++++++++++++++@@@@@@@@@@@@@@@@@@@@@@@@@@@@@@@@++++++++++++++++++++++++        ++++++++",
"        ................++++++++........++++++++++++++++@@@@@@@@@@@@@@@@@@@@@@@@@@@@@@@@++++++++++++++++++++++++        ++++++++",
"        ................++++++++........++++++++++++++++@@@@@@@@@@@@@@@@@@@@@@@@@@@@@@@@++++++++++++++++++++++++        ++++++++",
"        ................++++++++........++++++++++++++++@@@@@@@@@@@@@@@@@@@@@@@@@@@@@@@@++++++++++++++++++++++++        ++++++++",
"        ........++++++++++++++++++++++++++++++++@@@@@@@@                        @@@@@@@@++++++++++++++++++++++++++++++++        ",
"        ........++++++++++++++++++++++++++++++++@@@@@@@@                        @@@@@@@@++++++++++++++++++++++++++++++++        ",
"        ........++++++++++++++++++++++++++++++++@@@@@@@@                        @@@@@@@@++++++++++++++++++++++++++++++++        ",
"        ........++++++++++++++++++++++++++++++++@@@@@@@@                        @@@@@@@@++++++++++++++++++++++++++++++++        ",
"        ........++++++++++++++++++++++++++++++++@@@@@@@@                        @@@@@@@@++++++++++++++++++++++++++++++++        ",
"        ........++++++++++++++++++++++++++++++++@@@@@@@@                        @@@@@@@@++++++++++++++++++++++++++++++++        ",
"        ........++++++++++++++++++++++++++++++++@@@@@@@@                        @@@@@@@@++++++++++++++++++++++++++++++++        ",
"        ........++++++++++++++++++++++++++++++++@@@@@@@@                        @@@@@@@@++++++++++++++++++++++++++++++++        ",
"        ........++++++++++++++++@@@@@@@@@@@@@@@@                        @@@@@@@@        @@@@@@@@++++++++++++++++++++++++........",
"        ........++++++++++++++++@@@@@@@@@@@@@@@@                        @@@@@@@@        @@@@@@@@++++++++++++++++++++++++........",
"        ........++++++++++++++++@@@@@@@@@@@@@@@@                        @@@@@@@@        @@@@@@@@++++++++++++++++++++++++........",
"        ........++++++++++++++++@@@@@@@@@@@@@@@@                        @@@@@@@@        @@@@@@@@++++++++++++++++++++++++........",
"        ........++++++++++++++++@@@@@@@@@@@@@@@@                        @@@@@@@@        @@@@@@@@++++++++++++++++++++++++........",
"        ........++++++++++++++++@@@@@@@@@@@@@@@@                        @@@@@@@@        @@@@@@@@++++++++++++++++++++++++........",
"        ........++++++++++++++++@@@@@@@@@@@@@@@@                        @@@@@@@@        @@@@@@@@++++++++++++++++++++++++........",
"        ........++++++++++++++++@@@@@@@@@@@@@@@@                        @@@@@@@@        @@@@@@@@++++++++++++++++++++++++........",
"        ++++++++++++++++@@@@@@@@        @@@@@@@@########$$$$$$$$########@@@@@@@@                @@@@@@@@++++++++++++++++++++++++",
"        ++++++++++++++++@@@@@@@@        @@@@@@@@########$$$$$$$$########@@@@@@@@                @@@@@@@@++++++++++++++++++++++++",
"        ++++++++++++++++@@@@@@@@        @@@@@@@@########$$$$$$$$########@@@@@@@@                @@@@@@@@++++++++++++++++++++++++",
"        ++++++++++++++++@@@@@@@@        @@@@@@@@########$$$$$$$$########@@@@@@@@                @@@@@@@@++++++++++++++++++++++++",
"        ++++++++++++++++@@@@@@@@        @@@@@@@@########$$$$$$$$########@@@@@@@@                @@@@@@@@++++++++++++++++++++++++",
"        ++++++++++++++++@@@@@@@@        @@@@@@@@########$$$$$$$$########@@@@@@@@                @@@@@@@@++++++++++++++++++++++++",
"        ++++++++++++++++@@@@@@@@        @@@@@@@@########$$$$$$$$########@@@@@@@@                @@@@@@@@++++++++++++++++++++++++",
"        ++++++++++++++++@@@@@@@@        @@@@@@@@########$$$$$$$$########@@@@@@@@                @@@@@@@@++++++++++++++++++++++++",
"        ........@@@@@@@@@@@@@@@@                                                                @@@@@@@@@@@@@@@@++++++++++++++++",
"        ........@@@@@@@@@@@@@@@@                                                                @@@@@@@@@@@@@@@@++++++++++++++++",
"        ........@@@@@@@@@@@@@@@@                                                                @@@@@@@@@@@@@@@@++++++++++++++++",
"        ........@@@@@@@@@@@@@@@@                                                                @@@@@@@@@@@@@@@@++++++++++++++++",
"        ........@@@@@@@@@@@@@@@@                                                                @@@@@@@@@@@@@@@@++++++++++++++++",
"        ........@@@@@@@@@@@@@@@@                                                                @@@@@@@@@@@@@@@@++++++++++++++++",
"        ........@@@@@@@@@@@@@@@@                                                                @@@@@@@@@@@@@@@@++++++++++++++++",
"        ........@@@@@@@@@@@@@@@@                                                                @@@@@@@@@@@@@@@@++++++++++++++++",
"        @@@@@@@@........@@@@@@@@@@@@@@@@@@@@@@@@@@@@@@@@@@@@@@@@@@@@@@@@@@@@@@@@@@@@@@@@@@@@@@@@$$$$$$$$$$$$$$$$@@@@@@@@++++++++",
"        @@@@@@@@........@@@@@@@@@@@@@@@@@@@@@@@@@@@@@@@@@@@@@@@@@@@@@@@@@@@@@@@@@@@@@@@@@@@@@@@@$$$$$$$$$$$$$$$$@@@@@@@@++++++++",
"        @@@@@@@@........@@@@@@@@@@@@@@@@@@@@@@@@@@@@@@@@@@@@@@@@@@@@@@@@@@@@@@@@@@@@@@@@@@@@@@@@$$$$$$$$$$$$$$$$@@@@@@@@++++++++",
"        @@@@@@@@........@@@@@@@@@@@@@@@@@@@@@@@@@@@@@@@@@@@@@@@@@@@@@@@@@@@@@@@@@@@@@@@@@@@@@@@@$$$$$$$$$$$$$$$$@@@@@@@@++++++++",
"        @@@@@@@@........@@@@@@@@@@@@@@@@@@@@@@@@@@@@@@@@@@@@@@@@@@@@@@@@@@@@@@@@@@@@@@@@@@@@@@@@$$$$$$$$$$$$$$$$@@@@@@@@++++++++",
"        @@@@@@@@........@@@@@@@@@@@@@@@@@@@@@@@@@@@@@@@@@@@@@@@@@@@@@@@@@@@@@@@@@@@@@@@@@@@@@@@@$$$$$$$$$$$$$$$$@@@@@@@@++++++++",
"        @@@@@@@@........@@@@@@@@@@@@@@@@@@@@@@@@@@@@@@@@@@@@@@@@@@@@@@@@@@@@@@@@@@@@@@@@@@@@@@@@$$$$$$$$$$$$$$$$@@@@@@@@++++++++",
"        @@@@@@@@........@@@@@@@@@@@@@@@@@@@@@@@@@@@@@@@@@@@@@@@@@@@@@@@@@@@@@@@@@@@@@@@@@@@@@@@@$$$$$$$$$$$$$$$$@@@@@@@@++++++++",
"        @@@@@@@@........@@@@@@@@++++++++@@@@@@@@%%%%%%%%&&&&&&&&&&&&&&&&%%%%%%%%@@@@@@@@@@@@@@@@$$$$$$$$$$$$$$$$@@@@@@@@        ",
"        @@@@@@@@........@@@@@@@@++++++++@@@@@@@@%%%%%%%%&&&&&&&&&&&&&&&&%%%%%%%%@@@@@@@@@@@@@@@@$$$$$$$$$$$$$$$$@@@@@@@@        ",
"        @@@@@@@@........@@@@@@@@++++++++@@@@@@@@%%%%%%%%&&&&&&&&&&&&&&&&%%%%%%%%@@@@@@@@@@@@@@@@$$$$$$$$$$$$$$$$@@@@@@@@        ",
"        @@@@@@@@........@@@@@@@@++++++++@@@@@@@@%%%%%%%%&&&&&&&&&&&&&&&&%%%%%%%%@@@@@@@@@@@@@@@@$$$$$$$$$$$$$$$$@@@@@@@@        ",
"        @@@@@@@@........@@@@@@@@++++++++@@@@@@@@%%%%%%%%&&&&&&&&&&&&&&&&%%%%%%%%@@@@@@@@@@@@@@@@$$$$$$$$$$$$$$$$@@@@@@@@        ",
"        @@@@@@@@........@@@@@@@@++++++++@@@@@@@@%%%%%%%%&&&&&&&&&&&&&&&&%%%%%%%%@@@@@@@@@@@@@@@@$$$$$$$$$$$$$$$$@@@@@@@@        ",
"        @@@@@@@@........@@@@@@@@++++++++@@@@@@@@%%%%%%%%&&&&&&&&&&&&&&&&%%%%%%%%@@@@@@@@@@@@@@@@$$$$$$$$$$$$$$$$@@@@@@@@        ",
"        @@@@@@@@........@@@@@@@@++++++++@@@@@@@@%%%%%%%%&&&&&&&&&&&&&&&&%%%%%%%%@@@@@@@@@@@@@@@@$$$$$$$$$$$$$$$$@@@@@@@@        ",
"########@@@@@@@@........@@@@@@@@        @@@@@@@@++++++++                ++++++++@@@@@@@@@@@@@@@@$$$$$$$$@@@@@@@@                ",
"########@@@@@@@@........@@@@@@@@        @@@@@@@@++++++++                ++++++++@@@@@@@@@@@@@@@@$$$$$$$$@@@@@@@@                ",
"########@@@@@@@@........@@@@@@@@        @@@@@@@@++++++++                ++++++++@@@@@@@@@@@@@@@@$$$$$$$$@@@@@@@@                ",
"########@@@@@@@@........@@@@@@@@        @@@@@@@@++++++++                ++++++++@@@@@@@@@@@@@@@@$$$$$$$$@@@@@@@@                ",
"########@@@@@@@@........@@@@@@@@        @@@@@@@@++++++++                ++++++++@@@@@@@@@@@@@@@@$$$$$$$$@@@@@@@@                ",
"########@@@@@@@@........@@@@@@@@        @@@@@@@@++++++++                ++++++++@@@@@@@@@@@@@@@@$$$$$$$$@@@@@@@@                ",
"########@@@@@@@@........@@@@@@@@        @@@@@@@@++++++++                ++++++++@@@@@@@@@@@@@@@@$$$$$$$$@@@@@@@@                ",
"########@@@@@@@@........@@@@@@@@        @@@@@@@@++++++++                ++++++++@@@@@@@@@@@@@@@@$$$$$$$$@@@@@@@@                ",
"@@@@@@@@@@@@@@@@........@@@@@@@@@@@@@@@@        @@@@@@@@++++++++++++++++@@@@@@@@        @@@@@@@@$$$$$$$$@@@@@@@@++++++++++++++++",
"@@@@@@@@@@@@@@@@........@@@@@@@@@@@@@@@@        @@@@@@@@++++++++++++++++@@@@@@@@        @@@@@@@@$$$$$$$$@@@@@@@@++++++++++++++++",
"@@@@@@@@@@@@@@@@........@@@@@@@@@@@@@@@@        @@@@@@@@++++++++++++++++@@@@@@@@        @@@@@@@@$$$$$$$$@@@@@@@@++++++++++++++++",
"@@@@@@@@@@@@@@@@........@@@@@@@@@@@@@@@@        @@@@@@@@++++++++++++++++@@@@@@@@        @@@@@@@@$$$$$$$$@@@@@@@@++++++++++++++++",
"@@@@@@@@@@@@@@@@........@@@@@@@@@@@@@@@@        @@@@@@@@++++++++++++++++@@@@@@@@        @@@@@@@@$$$$$$$$@@@@@@@@++++++++++++++++",
"@@@@@@@@@@@@@@@@........@@@@@@@@@@@@@@@@        @@@@@@@@++++++++++++++++@@@@@@@@        @@@@@@@@$$$$$$$$@@@@@@@@++++++++++++++++",
"@@@@@@@@@@@@@@@@........@@@@@@@@@@@@@@@@        @@@@@@@@++++++++++++++++@@@@@@@@        @@@@@@@@$$$$$$$$@@@@@@@@++++++++++++++++",
"@@@@@@@@@@@@@@@@........@@@@@@@@@@@@@@@@        @@@@@@@@++++++++++++++++@@@@@@@@        @@@@@@@@$$$$$$$$@@@@@@@@++++++++++++++++",
"@@@@@@@@                @@@@@@@@@@@@@@@@        @@@@@@@@++++++++++++++++@@@@@@@@        @@@@@@@@$$$$$$$$@@@@@@@@++++++++++++++++",
"@@@@@@@@                @@@@@@@@@@@@@@@@        @@@@@@@@++++++++++++++++@@@@@@@@        @@@@@@@@$$$$$$$$@@@@@@@@++++++++++++++++",
"@@@@@@@@                @@@@@@@@@@@@@@@@        @@@@@@@@++++++++++++++++@@@@@@@@        @@@@@@@@$$$$$$$$@@@@@@@@++++++++++++++++",
"@@@@@@@@                @@@@@@@@@@@@@@@@        @@@@@@@@++++++++++++++++@@@@@@@@        @@@@@@@@$$$$$$$$@@@@@@@@++++++++++++++++",
"@@@@@@@@                @@@@@@@@@@@@@@@@        @@@@@@@@++++++++++++++++@@@@@@@@        @@@@@@@@$$$$$$$$@@@@@@@@++++++++++++++++",
"@@@@@@@@                @@@@@@@@@@@@@@@@        @@@@@@@@++++++++++++++++@@@@@@@@        @@@@@@@@$$$$$$$$@@@@@@@@++++++++++++++++",
"@@@@@@@@                @@@@@@@@@@@@@@@@        @@@@@@@@++++++++++++++++@@@@@@@@        @@@@@@@@$$$$$$$$@@@@@@@@++++++++++++++++",
"@@@@@@@@                @@@@@@@@@@@@@@@@        @@@@@@@@++++++++++++++++@@@@@@@@        @@@@@@@@$$$$$$$$@@@@@@@@++++++++++++++++",
"        @@@@@@@@&&&&&&&&@@@@@@@@@@@@@@@@        @@@@@@@@++++++++@@@@@@@@                @@@@@@@@&&&&&&&&&&&&&&&&@@@@@@@@++++++++",
"        @@@@@@@@&&&&&&&&@@@@@@@@@@@@@@@@        @@@@@@@@++++++++@@@@@@@@                @@@@@@@@&&&&&&&&&&&&&&&&@@@@@@@@++++++++",
"        @@@@@@@@&&&&&&&&@@@@@@@@@@@@@@@@        @@@@@@@@++++++++@@@@@@@@                @@@@@@@@&&&&&&&&&&&&&&&&@@@@@@@@++++++++",
"        @@@@@@@@&&&&&&&&@@@@@@@@@@@@@@@@        @@@@@@@@++++++++@@@@@@@@                @@@@@@@@&&&&&&&&&&&&&&&&@@@@@@@@++++++++",
"        @@@@@@@@&&&&&&&&@@@@@@@@@@@@@@@@        @@@@@@@@++++++++@@@@@@@@                @@@@@@@@&&&&&&&&&&&&&&&&@@@@@@@@++++++++",
"        @@@@@@@@&&&&&&&&@@@@@@@@@@@@@@@@        @@@@@@@@++++++++@@@@@@@@                @@@@@@@@&&&&&&&&&&&&&&&&@@@@@@@@++++++++",
"        @@@@@@@@&&&&&&&&@@@@@@@@@@@@@@@@        @@@@@@@@++++++++@@@@@@@@                @@@@@@@@&&&&&&&&&&&&&&&&@@@@@@@@++++++++",
"        @@@@@@@@&&&&&&&&@@@@@@@@@@@@@@@@        @@@@@@@@++++++++@@@@@@@@                @@@@@@@@&&&&&&&&&&&&&&&&@@@@@@@@++++++++",
"        @@@@@@@@&&&&&&&&@@@@@@@@                @@@@@@@@@@@@@@@@                        @@@@@@@@&&&&&&&&&&&&&&&&@@@@@@@@++++++++",
"        @@@@@@@@&&&&&&&&@@@@@@@@                @@@@@@@@@@@@@@@@                        @@@@@@@@&&&&&&&&&&&&&&&&@@@@@@@@++++++++",
"        @@@@@@@@&&&&&&&&@@@@@@@@                @@@@@@@@@@@@@@@@                        @@@@@@@@&&&&&&&&&&&&&&&&@@@@@@@@++++++++",
"        @@@@@@@@&&&&&&&&@@@@@@@@                @@@@@@@@@@@@@@@@                        @@@@@@@@&&&&&&&&&&&&&&&&@@@@@@@@++++++++",
"        @@@@@@@@&&&&&&&&@@@@@@@@                @@@@@@@@@@@@@@@@                        @@@@@@@@&&&&&&&&&&&&&&&&@@@@@@@@++++++++",
"        @@@@@@@@&&&&&&&&@@@@@@@@                @@@@@@@@@@@@@@@@                        @@@@@@@@&&&&&&&&&&&&&&&&@@@@@@@@++++++++",
"        @@@@@@@@&&&&&&&&@@@@@@@@                @@@@@@@@@@@@@@@@                        @@@@@@@@&&&&&&&&&&&&&&&&@@@@@@@@++++++++",
"        @@@@@@@@&&&&&&&&@@@@@@@@                @@@@@@@@@@@@@@@@                        @@@@@@@@&&&&&&&&&&&&&&&&@@@@@@@@++++++++",
"        ++++++++@@@@@@@@@@@@@@@@                        ########                        @@@@@@@@$$$$$$$$@@@@@@@@++++++++++++++++",
"        ++++++++@@@@@@@@@@@@@@@@                        ########                        @@@@@@@@$$$$$$$$@@@@@@@@++++++++++++++++",
"        ++++++++@@@@@@@@@@@@@@@@                        ########                        @@@@@@@@$$$$$$$$@@@@@@@@++++++++++++++++",
"        ++++++++@@@@@@@@@@@@@@@@                        ########                        @@@@@@@@$$$$$$$$@@@@@@@@++++++++++++++++",
"        ++++++++@@@@@@@@@@@@@@@@                        ########                        @@@@@@@@$$$$$$$$@@@@@@@@++++++++++++++++",
"        ++++++++@@@@@@@@@@@@@@@@                        ########                        @@@@@@@@$$$$$$$$@@@@@@@@++++++++++++++++",
"        ++++++++@@@@@@@@@@@@@@@@                        ########                        @@@@@@@@$$$$$$$$@@@@@@@@++++++++++++++++",
"        ++++++++@@@@@@@@@@@@@@@@                        ########                        @@@@@@@@$$$$$$$$@@@@@@@@++++++++++++++++",
"        ........++++++++@@@@@@@@                        ########                        @@@@@@@@$$$$$$$$@@@@@@@@++++++++++++++++",
"        ........++++++++@@@@@@@@                        ########                        @@@@@@@@$$$$$$$$@@@@@@@@++++++++++++++++",
"        ........++++++++@@@@@@@@                        ########                        @@@@@@@@$$$$$$$$@@@@@@@@++++++++++++++++",
"        ........++++++++@@@@@@@@                        ########                        @@@@@@@@$$$$$$$$@@@@@@@@++++++++++++++++",
"        ........++++++++@@@@@@@@                        ########                        @@@@@@@@$$$$$$$$@@@@@@@@++++++++++++++++",
"        ........++++++++@@@@@@@@                        ########                        @@@@@@@@$$$$$$$$@@@@@@@@++++++++++++++++",
"        ........++++++++@@@@@@@@                        ########                        @@@@@@@@$$$$$$$$@@@@@@@@++++++++++++++++",
"        ........++++++++@@@@@@@@                        ########                        @@@@@@@@$$$$$$$$@@@@@@@@++++++++++++++++",
"                ........@@@@@@@@@@@@@@@@@@@@@@@@@@@@@@@@@@@@@@@@@@@@@@@@@@@@@@@@@@@@@@@@@@@@@@@@@@@@@@@@@@@@@@@@++++++++        ",
"                ........@@@@@@@@@@@@@@@@@@@@@@@@@@@@@@@@@@@@@@@@@@@@@@@@@@@@@@@@@@@@@@@@@@@@@@@@@@@@@@@@@@@@@@@@++++++++        ",
"                ........@@@@@@@@@@@@@@@@@@@@@@@@@@@@@@@@@@@@@@@@@@@@@@@@@@@@@@@@@@@@@@@@@@@@@@@@@@@@@@@@@@@@@@@@++++++++        ",
"                ........@@@@@@@@@@@@@@@@@@@@@@@@@@@@@@@@@@@@@@@@@@@@@@@@@@@@@@@@@@@@@@@@@@@@@@@@@@@@@@@@@@@@@@@@++++++++        ",
"                ........@@@@@@@@@@@@@@@@@@@@@@@@@@@@@@@@@@@@@@@@@@@@@@@@@@@@@@@@@@@@@@@@@@@@@@@@@@@@@@@@@@@@@@@@++++++++        ",
"                ........@@@@@@@@@@@@@@@@@@@@@@@@@@@@@@@@@@@@@@@@@@@@@@@@@@@@@@@@@@@@@@@@@@@@@@@@@@@@@@@@@@@@@@@@++++++++        ",
"                ........@@@@@@@@@@@@@@@@@@@@@@@@@@@@@@@@@@@@@@@@@@@@@@@@@@@@@@@@@@@@@@@@@@@@@@@@@@@@@@@@@@@@@@@@++++++++        ",
"                ........@@@@@@@@@@@@@@@@@@@@@@@@@@@@@@@@@@@@@@@@@@@@@@@@@@@@@@@@@@@@@@@@@@@@@@@@@@@@@@@@@@@@@@@@++++++++        ",
"########                                                        ########                                                        ",
"########                                                        ########                                                        ",
"########                                                        ########                                                        ",
"########                                                        ########                                                        ",
"########                                                        ########                                                        ",
"########                                                        ########                                                        ",
"########                                                        ########                                                        ",
"########                                                        ########                                                        "};
