/* XPM */
static char * moss_xpm[] = {
"128 128 3 1",
" 	c #80B878",
".	c #658D78",
"+	c #B1D480",
"                                                                                                                                ",
"                                                                                                                                ",
"                                                                                                                                ",
"                                                                                                                                ",
"                                                                                                                                ",
"                                                                                                                                ",
"                                                                                                                                ",
"                                                                                                                                ",
"                                                                                                                                ",
"                                                                                                                                ",
"                                                                                                                                ",
"                                                                                                                                ",
"                                                                                                                                ",
"                                                                                                                                ",
"                                                                                                                                ",
"                                                                                                                                ",
"........                                                                                                                ........",
"........                                                                                                                ........",
"........                                                                                                                ........",
"........                                                                                                                ........",
"........                                                                                                                ........",
"........                                                                                                                ........",
"........                                                                                                                ........",
"........                                                                                                                ........",
"................++++++++........................++++++++        ++++++++                ++++++++        ++++++++................",
"................++++++++........................++++++++        ++++++++                ++++++++        ++++++++................",
"................++++++++........................++++++++        ++++++++                ++++++++        ++++++++................",
"................++++++++........................++++++++        ++++++++                ++++++++        ++++++++................",
"................++++++++........................++++++++        ++++++++                ++++++++        ++++++++................",
"................++++++++........................++++++++        ++++++++                ++++++++        ++++++++................",
"................++++++++........................++++++++        ++++++++                ++++++++        ++++++++................",
"................++++++++........................++++++++        ++++++++                ++++++++        ++++++++................",
"........++++++++        ++++++++........++++++++                                                                ................",
"........++++++++        ++++++++........++++++++                                                                ................",
"........++++++++        ++++++++........++++++++                                                                ................",
"........++++++++        ++++++++........++++++++                                                                ................",
"........++++++++        ++++++++........++++++++                                                                ................",
"........++++++++        ++++++++........++++++++                                                                ................",
"........++++++++        ++++++++........++++++++                                                                ................",
"........++++++++        ++++++++........++++++++                                                                ................",
"                                ++++++++                                                ........                ++++++++........",
"                                ++++++++                                                ........                ++++++++........",
"                                ++++++++                                                ........                ++++++++........",
"                                ++++++++                                                ........                ++++++++........",
"                                ++++++++                                                ........                ++++++++........",
"                                ++++++++                                                ........                ++++++++........",
"                                ++++++++                                                ........                ++++++++........",
"                                ++++++++                                                ........                ++++++++........",
"                                                                                        ++++++++                                ",
"                                                                                        ++++++++                                ",
"                                                                                        ++++++++                                ",
"                                                                                        ++++++++                                ",
"                                                                                        ++++++++                                ",
"                                                                                        ++++++++                                ",
"                                                                                        ++++++++                                ",
"                                                                                        ++++++++                                ",
"                                                                                                                                ",
"                                                                                                                                ",
"                                                                                                                                ",
"                                                                                                                                ",
"                                                                                                                                ",
"                                                                                                                                ",
"                                                                                                                                ",
"                                                                                                                                ",
"                                                                                                                                ",
"                                                                                                                                ",
"                                                                                                                                ",
"                                                                                                                                ",
"                                                                                                                                ",
"                                                                                                                                ",
"                                                                                                                                ",
"                                                                                                                                ",
"                                                                        ........                                                ",
"                                                                        ........                                                ",
"                                                                        ........                                                ",
"                                                                        ........                                                ",
"                                                                        ........                                                ",
"                                                                        ........                                                ",
"                                                                        ........                                                ",
"                                                                        ........                                                ",
"........                                                                ++++++++                                        ........",
"........                                                                ++++++++                                        ........",
"........                                                                ++++++++                                        ........",
"........                                                                ++++++++                                        ........",
"........                                                                ++++++++                                        ........",
"........                                                                ++++++++                                        ........",
"........                                                                ++++++++                                        ........",
"........                                                                ++++++++                                        ........",
"................++++++++................++++++++                                                                ................",
"................++++++++................++++++++                                                                ................",
"................++++++++................++++++++                                                                ................",
"................++++++++................++++++++                                                                ................",
"................++++++++................++++++++                                                                ................",
"................++++++++................++++++++                                                                ................",
"................++++++++................++++++++                                                                ................",
"................++++++++................++++++++                                                                ................",
"................++++++++................                                                ++++++++        ++++++++................",
"................++++++++................                                                ++++++++        ++++++++................",
"................++++++++................                                                ++++++++        ++++++++................",
"................++++++++................                                                ++++++++        ++++++++................",
"................++++++++................                                                ++++++++        ++++++++................",
"................++++++++................                                                ++++++++        ++++++++................",
"................++++++++................                                                ++++++++        ++++++++................",
"................++++++++................                                                ++++++++        ++++++++................",
"................                ++++++++                                                                        ++++++++........",
"................                ++++++++                                                                        ++++++++........",
"................                ++++++++                                                                        ++++++++........",
"................                ++++++++                                                                        ++++++++........",
"................                ++++++++                                                                        ++++++++........",
"................                ++++++++                                                                        ++++++++........",
"................                ++++++++                                                                        ++++++++........",
"................                ++++++++                                                                        ++++++++........",
"........++++++++                                                                                                                ",
"........++++++++                                                                                                                ",
"........++++++++                                                                                                                ",
"........++++++++                                                                                                                ",
"........++++++++                                                                                                                ",
"........++++++++                                                                                                                ",
"........++++++++                                                                                                                ",
"........++++++++                                                                                                                ",
"                                                                                                                                ",
"                                                                                                                                ",
"                                                                                                                                ",
"                                                                                                                                ",
"                                                                                                                                ",
"                                                                                                                                ",
"                                                                                                                                ",
"                                                                                                                                "};
