/* XPM */
static char * mushroom_xpm[] = {
"128 128 5 1",
" 	c None",
".	c #3D003D",
"+	c #942C4B",
"@	c #C7424F",
"#	c #FFFFE0",
"                                                                                                                                ",
"                                                                                                                                ",
"                                                                                                                                ",
"                                                                                                                                ",
"                                                                                                                                ",
"                                                                                                                                ",
"                                                                                                                                ",
"                                                                                                                                ",
"                                                                                                ........                        ",
"                                                                                                ........                        ",
"                                                                                                ........                        ",
"                                                                                                ........                        ",
"                                                                                                ........                        ",
"                                                                                                ........                        ",
"                                                                                                ........                        ",
"                                                                                                ........                        ",
"                        ................                                                ........++++++++........                ",
"                        ................                                                ........++++++++........                ",
"                        ................                                                ........++++++++........                ",
"                        ................                                                ........++++++++........                ",
"                        ................                                                ........++++++++........                ",
"                        ................                                                ........++++++++........                ",
"                        ................                                                ........++++++++........                ",
"                        ................                                                ........++++++++........                ",
"                ........@@@@@@@@########........                                        ........++++++++........                ",
"                ........@@@@@@@@########........                                        ........++++++++........                ",
"                ........@@@@@@@@########........                                        ........++++++++........                ",
"                ........@@@@@@@@########........                                        ........++++++++........                ",
"                ........@@@@@@@@########........                                        ........++++++++........                ",
"                ........@@@@@@@@########........                                        ........++++++++........                ",
"                ........@@@@@@@@########........                                        ........++++++++........                ",
"                ........@@@@@@@@########........                                        ........++++++++........                ",
"        ........########++++++++++++++++@@@@@@@@........                        ........++++++++@@@@@@@@########........        ",
"        ........########++++++++++++++++@@@@@@@@........                        ........++++++++@@@@@@@@########........        ",
"        ........########++++++++++++++++@@@@@@@@........                        ........++++++++@@@@@@@@########........        ",
"        ........########++++++++++++++++@@@@@@@@........                        ........++++++++@@@@@@@@########........        ",
"        ........########++++++++++++++++@@@@@@@@........                        ........++++++++@@@@@@@@########........        ",
"        ........########++++++++++++++++@@@@@@@@........                        ........++++++++@@@@@@@@########........        ",
"        ........########++++++++++++++++@@@@@@@@........                        ........++++++++@@@@@@@@########........        ",
"        ........########++++++++++++++++@@@@@@@@........                        ........++++++++@@@@@@@@########........        ",
"                ................########........                                ........@@@@@@@@++++++++@@@@@@@@........        ",
"                ................########........                                ........@@@@@@@@++++++++@@@@@@@@........        ",
"                ................########........                                ........@@@@@@@@++++++++@@@@@@@@........        ",
"                ................########........                                ........@@@@@@@@++++++++@@@@@@@@........        ",
"                ................########........                                ........@@@@@@@@++++++++@@@@@@@@........        ",
"                ................########........                                ........@@@@@@@@++++++++@@@@@@@@........        ",
"                ................########........                                ........@@@@@@@@++++++++@@@@@@@@........        ",
"                ................########........                                ........@@@@@@@@++++++++@@@@@@@@........        ",
"                                ........########........                ........@@@@@@@@########@@@@@@@@++++++++++++++++........",
"                                ........########........                ........@@@@@@@@########@@@@@@@@++++++++++++++++........",
"                                ........########........                ........@@@@@@@@########@@@@@@@@++++++++++++++++........",
"                                ........########........                ........@@@@@@@@########@@@@@@@@++++++++++++++++........",
"                                ........########........                ........@@@@@@@@########@@@@@@@@++++++++++++++++........",
"                                ........########........                ........@@@@@@@@########@@@@@@@@++++++++++++++++........",
"                                ........########........                ........@@@@@@@@########@@@@@@@@++++++++++++++++........",
"                                ........########........                ........@@@@@@@@########@@@@@@@@++++++++++++++++........",
"                                                                                ........@@@@@@@@++++++++++++++++........        ",
"                                                                                ........@@@@@@@@++++++++++++++++........        ",
"                                                                                ........@@@@@@@@++++++++++++++++........        ",
"                                                                                ........@@@@@@@@++++++++++++++++........        ",
"                                                                                ........@@@@@@@@++++++++++++++++........        ",
"                                                                                ........@@@@@@@@++++++++++++++++........        ",
"                                                                                ........@@@@@@@@++++++++++++++++........        ",
"                                                                                ........@@@@@@@@++++++++++++++++........        ",
"                                                                                        ........########........                ",
"                                                                                        ........########........                ",
"                                                                                        ........########........                ",
"                                                                                        ........########........                ",
"                                                                                        ........########........                ",
"                                                                                        ........########........                ",
"                                                                                        ........########........                ",
"                                                                                        ........########........                ",
"                                                                                        ........########........                ",
"                                                                                        ........########........                ",
"                                                                                        ........########........                ",
"                                                                                        ........########........                ",
"                                                                                        ........########........                ",
"                                                                                        ........########........                ",
"                                                                                        ........########........                ",
"                                                                                        ........########........                ",
"                                ........................                                        ........................        ",
"                                ........................                                        ........................        ",
"                                ........................                                        ........................        ",
"                                ........................                                        ........................        ",
"                                ........................                                        ........................        ",
"                                ........................                                        ........................        ",
"                                ........................                                        ........................        ",
"                                ........................                                        ........................        ",
"                        ........++++++++@@@@@@@@########........                        ........++++++++@@@@@@@@########........",
"                        ........++++++++@@@@@@@@########........                        ........++++++++@@@@@@@@########........",
"                        ........++++++++@@@@@@@@########........                        ........++++++++@@@@@@@@########........",
"                        ........++++++++@@@@@@@@########........                        ........++++++++@@@@@@@@########........",
"                        ........++++++++@@@@@@@@########........                        ........++++++++@@@@@@@@########........",
"                        ........++++++++@@@@@@@@########........                        ........++++++++@@@@@@@@########........",
"                        ........++++++++@@@@@@@@########........                        ........++++++++@@@@@@@@########........",
"                        ........++++++++@@@@@@@@########........                        ........++++++++@@@@@@@@########........",
"                ........########@@@@@@@@++++++++........                                        ........########........        ",
"                ........########@@@@@@@@++++++++........                                        ........########........        ",
"                ........########@@@@@@@@++++++++........                                        ........########........        ",
"                ........########@@@@@@@@++++++++........                                        ........########........        ",
"                ........########@@@@@@@@++++++++........                                        ........########........        ",
"                ........########@@@@@@@@++++++++........                                        ........########........        ",
"                ........########@@@@@@@@++++++++........                                        ........########........        ",
"                ........########@@@@@@@@++++++++........                                        ........########........        ",
"                        ........########........                                        ........########........                ",
"                        ........########........                                        ........########........                ",
"                        ........########........                                        ........########........                ",
"                        ........########........                                        ........########........                ",
"                        ........########........                                        ........########........                ",
"                        ........########........                                        ........########........                ",
"                        ........########........                                        ........########........                ",
"                        ........########........                                        ........########........                ",
"                        ........########........                                                                                ",
"                        ........########........                                                                                ",
"                        ........########........                                                                                ",
"                        ........########........                                                                                ",
"                        ........########........                                                                                ",
"                        ........########........                                                                                ",
"                        ........########........                                                                                ",
"                        ........########........                                                                                ",
"                                                                                                                                ",
"                                                                                                                                ",
"                                                                                                                                ",
"                                                                                                                                ",
"                                                                                                                                ",
"                                                                                                                                ",
"                                                                                                                                ",
"                                                                                                                                "};
