/* XPM */
static char * player_xpm[] = {
"128 128 15 1",
" 	c None",
".	c #3D003D",
"+	c #5B3374",
"@	c #412051",
"#	c #804085",
"$	c #4E6679",
"%	c #FCEF8D",
"&	c #658D78",
"*	c #B1D480",
"=	c #80B878",
"-	c #A14D55",
";	c #464969",
">	c #FFFFE0",
",	c #F2CB9B",
"'	c #E3A084",
"                                                                ........................                                        ",
"                                                                ........................                                        ",
"                                                                ........................                                        ",
"                                                                ........................                                        ",
"                                                                ........................                                        ",
"                                                                ........................                                        ",
"                                                                ........................                                        ",
"                                                                ........................                                        ",
"                                                        ........++++++++@@@@@@@@........                                        ",
"                                                        ........++++++++@@@@@@@@........                                        ",
"                                                        ........++++++++@@@@@@@@........                                        ",
"                                                        ........++++++++@@@@@@@@........                                        ",
"                                                        ........++++++++@@@@@@@@........                                        ",
"                                                        ........++++++++@@@@@@@@........                                        ",
"                                                        ........++++++++@@@@@@@@........                                        ",
"                                                        ........++++++++@@@@@@@@........                                        ",
"                                                ........++++++++@@@@@@@@........                                                ",
"                                                ........++++++++@@@@@@@@........                                                ",
"                                                ........++++++++@@@@@@@@........                                                ",
"                                                ........++++++++@@@@@@@@........                                                ",
"                                                ........++++++++@@@@@@@@........                                                ",
"                                                ........++++++++@@@@@@@@........                                                ",
"                                                ........++++++++@@@@@@@@........                                                ",
"                                                ........++++++++@@@@@@@@........                                                ",
"                                ................++++++++++++++++++++++++@@@@@@@@................                                ",
"                                ................++++++++++++++++++++++++@@@@@@@@................                                ",
"                                ................++++++++++++++++++++++++@@@@@@@@................                                ",
"                                ................++++++++++++++++++++++++@@@@@@@@................                                ",
"                                ................++++++++++++++++++++++++@@@@@@@@................                                ",
"                                ................++++++++++++++++++++++++@@@@@@@@................                                ",
"                                ................++++++++++++++++++++++++@@@@@@@@................                                ",
"                                ................++++++++++++++++++++++++@@@@@@@@................                                ",
"                        ........########........$$$$$$$$%%%%%%%%&&&&&&&&&&&&&&&&........@@@@@@@@........                        ",
"                        ........########........$$$$$$$$%%%%%%%%&&&&&&&&&&&&&&&&........@@@@@@@@........                        ",
"                        ........########........$$$$$$$$%%%%%%%%&&&&&&&&&&&&&&&&........@@@@@@@@........                        ",
"                        ........########........$$$$$$$$%%%%%%%%&&&&&&&&&&&&&&&&........@@@@@@@@........                        ",
"                        ........########........$$$$$$$$%%%%%%%%&&&&&&&&&&&&&&&&........@@@@@@@@........                        ",
"                        ........########........$$$$$$$$%%%%%%%%&&&&&&&&&&&&&&&&........@@@@@@@@........                        ",
"                        ........########........$$$$$$$$%%%%%%%%&&&&&&&&&&&&&&&&........@@@@@@@@........                        ",
"                        ........########........$$$$$$$$%%%%%%%%&&&&&&&&&&&&&&&&........@@@@@@@@........                        ",
"                ........********........################++++++++################++++++++........                                ",
"                ........********........################++++++++################++++++++........                                ",
"                ........********........################++++++++################++++++++........                                ",
"                ........********........################++++++++################++++++++........                                ",
"                ........********........################++++++++################++++++++........                                ",
"                ........********........################++++++++################++++++++........                                ",
"                ........********........################++++++++################++++++++........                                ",
"                ........********........################++++++++################++++++++........                                ",
"                ........========........................................................                                        ",
"                ........========........................................................                                        ",
"                ........========........................................................                                        ",
"                ........========........................................................                                        ",
"                ........========........................................................                                        ",
"                ........========........................................................                                        ",
"                ........========........................................................                                        ",
"                ........========........................................................                                        ",
"                ........--------........;;;;;;;;>>>>>>>>;;;;;;;;>>>>>>>>;;;;;;;;;;;;;;;;................                        ",
"                ........--------........;;;;;;;;>>>>>>>>;;;;;;;;>>>>>>>>;;;;;;;;;;;;;;;;................                        ",
"                ........--------........;;;;;;;;>>>>>>>>;;;;;;;;>>>>>>>>;;;;;;;;;;;;;;;;................                        ",
"                ........--------........;;;;;;;;>>>>>>>>;;;;;;;;>>>>>>>>;;;;;;;;;;;;;;;;................                        ",
"                ........--------........;;;;;;;;>>>>>>>>;;;;;;;;>>>>>>>>;;;;;;;;;;;;;;;;................                        ",
"                ........--------........;;;;;;;;>>>>>>>>;;;;;;;;>>>>>>>>;;;;;;;;;;;;;;;;................                        ",
"                ........--------........;;;;;;;;>>>>>>>>;;;;;;;;>>>>>>>>;;;;;;;;;;;;;;;;................                        ",
"                ........--------........;;;;;;;;>>>>>>>>;;;;;;;;>>>>>>>>;;;;;;;;;;;;;;;;................                        ",
"                ........--------@@@@@@@@........;;;;;;;;;;;;;;;;;;;;;;;;;;;;;;;;........########........                        ",
"                ........--------@@@@@@@@........;;;;;;;;;;;;;;;;;;;;;;;;;;;;;;;;........########........                        ",
"                ........--------@@@@@@@@........;;;;;;;;;;;;;;;;;;;;;;;;;;;;;;;;........########........                        ",
"                ........--------@@@@@@@@........;;;;;;;;;;;;;;;;;;;;;;;;;;;;;;;;........########........                        ",
"                ........--------@@@@@@@@........;;;;;;;;;;;;;;;;;;;;;;;;;;;;;;;;........########........                        ",
"                ........--------@@@@@@@@........;;;;;;;;;;;;;;;;;;;;;;;;;;;;;;;;........########........                        ",
"                ........--------@@@@@@@@........;;;;;;;;;;;;;;;;;;;;;;;;;;;;;;;;........########........                        ",
"                ........--------@@@@@@@@........;;;;;;;;;;;;;;;;;;;;;;;;;;;;;;;;........########........                        ",
"                ........--------........########........;;;;;;;;;;;;;;;;........########........                                ",
"                ........--------........########........;;;;;;;;;;;;;;;;........########........                                ",
"                ........--------........########........;;;;;;;;;;;;;;;;........########........                                ",
"                ........--------........########........;;;;;;;;;;;;;;;;........########........                                ",
"                ........--------........########........;;;;;;;;;;;;;;;;........########........                                ",
"                ........--------........########........;;;;;;;;;;;;;;;;........########........                                ",
"                ........--------........########........;;;;;;;;;;;;;;;;........########........                                ",
"                ........--------........########........;;;;;;;;;;;;;;;;........########........                                ",
"        ........,,,,,,,,''''''''........++++++++@@@@@@@@................########@@@@@@@@........                                ",
"        ........,,,,,,,,''''''''........++++++++@@@@@@@@................########@@@@@@@@........                                ",
"        ........,,,,,,,,''''''''........++++++++@@@@@@@@................########@@@@@@@@........                                ",
"        ........,,,,,,,,''''''''........++++++++@@@@@@@@................########@@@@@@@@........                                ",
"        ........,,,,,,,,''''''''........++++++++@@@@@@@@................########@@@@@@@@........                                ",
"        ........,,,,,,,,''''''''........++++++++@@@@@@@@................########@@@@@@@@........                                ",
"        ........,,,,,,,,''''''''........++++++++@@@@@@@@................########@@@@@@@@........                                ",
"        ........,,,,,,,,''''''''........++++++++@@@@@@@@................########@@@@@@@@........                                ",
"        ........'''''''',,,,,,,,........++++++++@@@@@@@@........########++++++++++++++++@@@@@@@@........                        ",
"        ........'''''''',,,,,,,,........++++++++@@@@@@@@........########++++++++++++++++@@@@@@@@........                        ",
"        ........'''''''',,,,,,,,........++++++++@@@@@@@@........########++++++++++++++++@@@@@@@@........                        ",
"        ........'''''''',,,,,,,,........++++++++@@@@@@@@........########++++++++++++++++@@@@@@@@........                        ",
"        ........'''''''',,,,,,,,........++++++++@@@@@@@@........########++++++++++++++++@@@@@@@@........                        ",
"        ........'''''''',,,,,,,,........++++++++@@@@@@@@........########++++++++++++++++@@@@@@@@........                        ",
"        ........'''''''',,,,,,,,........++++++++@@@@@@@@........########++++++++++++++++@@@@@@@@........                        ",
"        ........'''''''',,,,,,,,........++++++++@@@@@@@@........########++++++++++++++++@@@@@@@@........                        ",
"                ........--------########++++++++@@@@@@@@........########++++++++++++++++@@@@@@@@........                        ",
"                ........--------########++++++++@@@@@@@@........########++++++++++++++++@@@@@@@@........                        ",
"                ........--------########++++++++@@@@@@@@........########++++++++++++++++@@@@@@@@........                        ",
"                ........--------########++++++++@@@@@@@@........########++++++++++++++++@@@@@@@@........                        ",
"                ........--------########++++++++@@@@@@@@........########++++++++++++++++@@@@@@@@........                        ",
"                ........--------########++++++++@@@@@@@@........########++++++++++++++++@@@@@@@@........                        ",
"                ........--------########++++++++@@@@@@@@........########++++++++++++++++@@@@@@@@........                        ",
"                ........--------########++++++++@@@@@@@@........########++++++++++++++++@@@@@@@@........                        ",
"                ........--------########++++++++@@@@@@@@........########++++++++++++++++++++++++@@@@@@@@........                ",
"                ........--------########++++++++@@@@@@@@........########++++++++++++++++++++++++@@@@@@@@........                ",
"                ........--------########++++++++@@@@@@@@........########++++++++++++++++++++++++@@@@@@@@........                ",
"                ........--------########++++++++@@@@@@@@........########++++++++++++++++++++++++@@@@@@@@........                ",
"                ........--------########++++++++@@@@@@@@........########++++++++++++++++++++++++@@@@@@@@........                ",
"                ........--------########++++++++@@@@@@@@........########++++++++++++++++++++++++@@@@@@@@........                ",
"                ........--------########++++++++@@@@@@@@........########++++++++++++++++++++++++@@@@@@@@........                ",
"                ........--------########++++++++@@@@@@@@........########++++++++++++++++++++++++@@@@@@@@........                ",
"                ........--------################@@@@@@@@........################++++++++########++++++++@@@@@@@@........        ",
"                ........--------################@@@@@@@@........################++++++++########++++++++@@@@@@@@........        ",
"                ........--------################@@@@@@@@........################++++++++########++++++++@@@@@@@@........        ",
"                ........--------################@@@@@@@@........################++++++++########++++++++@@@@@@@@........        ",
"                ........--------################@@@@@@@@........################++++++++########++++++++@@@@@@@@........        ",
"                ........--------################@@@@@@@@........################++++++++########++++++++@@@@@@@@........        ",
"                ........--------################@@@@@@@@........################++++++++########++++++++@@@@@@@@........        ",
"                ........--------################@@@@@@@@........################++++++++########++++++++@@@@@@@@........        ",
"                ........--------........................................................................................        ",
"                ........--------........................................................................................        ",
"                ........--------........................................................................................        ",
"                ........--------........................................................................................        ",
"                ........--------........................................................................................        ",
"                ........--------........................................................................................        ",
"                ........--------........................................................................................        ",
"                ........--------........................................................................................        "};
