/* XPM */
static char * wall_up_xpm[] = {
"128 128 3 1",
" 	c #3D003D",
".	c #412051",
"+	c #5C486A",
"        ................................................................................................................        ",
"        ................................................................................................................        ",
"        ................................................................................................................        ",
"        ................................................................................................................        ",
"        ................................................................................................................        ",
"        ................................................................................................................        ",
"        ................................................................................................................        ",
"        ................................................................................................................        ",
"........++++++++................++++++++++++++++++++++++++++++++++++++++++++++++++++++++++++++++++++++++++++++++++++++++........",
"........++++++++................++++++++++++++++++++++++++++++++++++++++++++++++++++++++++++++++++++++++++++++++++++++++........",
"........++++++++................++++++++++++++++++++++++++++++++++++++++++++++++++++++++++++++++++++++++++++++++++++++++........",
"........++++++++................++++++++++++++++++++++++++++++++++++++++++++++++++++++++++++++++++++++++++++++++++++++++........",
"........++++++++................++++++++++++++++++++++++++++++++++++++++++++++++++++++++++++++++++++++++++++++++++++++++........",
"........++++++++................++++++++++++++++++++++++++++++++++++++++++++++++++++++++++++++++++++++++++++++++++++++++........",
"........++++++++................++++++++++++++++++++++++++++++++++++++++++++++++++++++++++++++++++++++++++++++++++++++++........",
"........++++++++................++++++++++++++++++++++++++++++++++++++++++++++++++++++++++++++++++++++++++++++++++++++++........",
"................++++++++++++++++++++++++++++++++++++++++++++++++++++++++........++++++++++++++++++++++++........++++++++........",
"................++++++++++++++++++++++++++++++++++++++++++++++++++++++++........++++++++++++++++++++++++........++++++++........",
"................++++++++++++++++++++++++++++++++++++++++++++++++++++++++........++++++++++++++++++++++++........++++++++........",
"................++++++++++++++++++++++++++++++++++++++++++++++++++++++++........++++++++++++++++++++++++........++++++++........",
"................++++++++++++++++++++++++++++++++++++++++++++++++++++++++........++++++++++++++++++++++++........++++++++........",
"................++++++++++++++++++++++++++++++++++++++++++++++++++++++++........++++++++++++++++++++++++........++++++++........",
"................++++++++++++++++++++++++++++++++++++++++++++++++++++++++........++++++++++++++++++++++++........++++++++........",
"................++++++++++++++++++++++++++++++++++++++++++++++++++++++++........++++++++++++++++++++++++........++++++++........",
"........++++++++++++++++++++++++++++++++++++++++++++++++++++++++++++++++++++++++........++++++++........++++++++++++++++........",
"........++++++++++++++++++++++++++++++++++++++++++++++++++++++++++++++++++++++++........++++++++........++++++++++++++++........",
"........++++++++++++++++++++++++++++++++++++++++++++++++++++++++++++++++++++++++........++++++++........++++++++++++++++........",
"........++++++++++++++++++++++++++++++++++++++++++++++++++++++++++++++++++++++++........++++++++........++++++++++++++++........",
"........++++++++++++++++++++++++++++++++++++++++++++++++++++++++++++++++++++++++........++++++++........++++++++++++++++........",
"........++++++++++++++++++++++++++++++++++++++++++++++++++++++++++++++++++++++++........++++++++........++++++++++++++++........",
"........++++++++++++++++++++++++++++++++++++++++++++++++++++++++++++++++++++++++........++++++++........++++++++++++++++........",
"........++++++++++++++++++++++++++++++++++++++++++++++++++++++++++++++++++++++++........++++++++........++++++++++++++++........",
"........++++++++++++++++++++++++++++++++++++++++++++++++++++++++++++++++++++++++++++++++........++++++++++++++++++++++++........",
"........++++++++++++++++++++++++++++++++++++++++++++++++++++++++++++++++++++++++++++++++........++++++++++++++++++++++++........",
"........++++++++++++++++++++++++++++++++++++++++++++++++++++++++++++++++++++++++++++++++........++++++++++++++++++++++++........",
"........++++++++++++++++++++++++++++++++++++++++++++++++++++++++++++++++++++++++++++++++........++++++++++++++++++++++++........",
"........++++++++++++++++++++++++++++++++++++++++++++++++++++++++++++++++++++++++++++++++........++++++++++++++++++++++++........",
"........++++++++++++++++++++++++++++++++++++++++++++++++++++++++++++++++++++++++++++++++........++++++++++++++++++++++++........",
"........++++++++++++++++++++++++++++++++++++++++++++++++++++++++++++++++++++++++++++++++........++++++++++++++++++++++++........",
"........++++++++++++++++++++++++++++++++++++++++++++++++++++++++++++++++++++++++++++++++........++++++++++++++++++++++++........",
"........++++++++++++++++++++++++++++++++++++++++++++++++++++++++++++++++++++++++........++++++++++++++++++++++++++++++++........",
"........++++++++++++++++++++++++++++++++++++++++++++++++++++++++++++++++++++++++........++++++++++++++++++++++++++++++++........",
"........++++++++++++++++++++++++++++++++++++++++++++++++++++++++++++++++++++++++........++++++++++++++++++++++++++++++++........",
"........++++++++++++++++++++++++++++++++++++++++++++++++++++++++++++++++++++++++........++++++++++++++++++++++++++++++++........",
"........++++++++++++++++++++++++++++++++++++++++++++++++++++++++++++++++++++++++........++++++++++++++++++++++++++++++++........",
"........++++++++++++++++++++++++++++++++++++++++++++++++++++++++++++++++++++++++........++++++++++++++++++++++++++++++++........",
"........++++++++++++++++++++++++++++++++++++++++++++++++++++++++++++++++++++++++........++++++++++++++++++++++++++++++++........",
"........++++++++++++++++++++++++++++++++++++++++++++++++++++++++++++++++++++++++........++++++++++++++++++++++++++++++++........",
"........++++++++++++++++++++++++++++++++++++++++++++++++++++++++++++++++++++++++........++++++++++++++++++++++++++++++++........",
"........++++++++++++++++++++++++++++++++++++++++++++++++++++++++++++++++++++++++........++++++++++++++++++++++++++++++++........",
"........++++++++++++++++++++++++++++++++++++++++++++++++++++++++++++++++++++++++........++++++++++++++++++++++++++++++++........",
"........++++++++++++++++++++++++++++++++++++++++++++++++++++++++++++++++++++++++........++++++++++++++++++++++++++++++++........",
"........++++++++++++++++++++++++++++++++++++++++++++++++++++++++++++++++++++++++........++++++++++++++++++++++++++++++++........",
"........++++++++++++++++++++++++++++++++++++++++++++++++++++++++++++++++++++++++........++++++++++++++++++++++++++++++++........",
"........++++++++++++++++++++++++++++++++++++++++++++++++++++++++++++++++++++++++........++++++++++++++++++++++++++++++++........",
"........++++++++++++++++++++++++++++++++++++++++++++++++++++++++++++++++++++++++........++++++++++++++++++++++++++++++++........",
"........++++++++++++++++++++++++++++++++++++++++++++++++++++++++++++++++........++++++++++++++++++++++++++++++++++++++++........",
"........++++++++++++++++++++++++++++++++++++++++++++++++++++++++++++++++........++++++++++++++++++++++++++++++++++++++++........",
"........++++++++++++++++++++++++++++++++++++++++++++++++++++++++++++++++........++++++++++++++++++++++++++++++++++++++++........",
"........++++++++++++++++++++++++++++++++++++++++++++++++++++++++++++++++........++++++++++++++++++++++++++++++++++++++++........",
"........++++++++++++++++++++++++++++++++++++++++++++++++++++++++++++++++........++++++++++++++++++++++++++++++++++++++++........",
"........++++++++++++++++++++++++++++++++++++++++++++++++++++++++++++++++........++++++++++++++++++++++++++++++++++++++++........",
"........++++++++++++++++++++++++++++++++++++++++++++++++++++++++++++++++........++++++++++++++++++++++++++++++++++++++++........",
"........++++++++++++++++++++++++++++++++++++++++++++++++++++++++++++++++........++++++++++++++++++++++++++++++++++++++++........",
"........++++++++++++++++++++++++++++++++++++++++++++++++++++++++++++++++++++++++++++++++++++++++++++++++++++++++++++++++........",
"........++++++++++++++++++++++++++++++++++++++++++++++++++++++++++++++++++++++++++++++++++++++++++++++++++++++++++++++++........",
"........++++++++++++++++++++++++++++++++++++++++++++++++++++++++++++++++++++++++++++++++++++++++++++++++++++++++++++++++........",
"........++++++++++++++++++++++++++++++++++++++++++++++++++++++++++++++++++++++++++++++++++++++++++++++++++++++++++++++++........",
"........++++++++++++++++++++++++++++++++++++++++++++++++++++++++++++++++++++++++++++++++++++++++++++++++++++++++++++++++........",
"........++++++++++++++++++++++++++++++++++++++++++++++++++++++++++++++++++++++++++++++++++++++++++++++++++++++++++++++++........",
"........++++++++++++++++++++++++++++++++++++++++++++++++++++++++++++++++++++++++++++++++++++++++++++++++++++++++++++++++........",
"........++++++++++++++++++++++++++++++++++++++++++++++++++++++++++++++++++++++++++++++++++++++++++++++++++++++++++++++++........",
"................++++++++++++++++++++++++++++++++++++++++++++++++++++++++++++++++++++++++++++++++++++++++++++++++++++++++........",
"................++++++++++++++++++++++++++++++++++++++++++++++++++++++++++++++++++++++++++++++++++++++++++++++++++++++++........",
"................++++++++++++++++++++++++++++++++++++++++++++++++++++++++++++++++++++++++++++++++++++++++++++++++++++++++........",
"................++++++++++++++++++++++++++++++++++++++++++++++++++++++++++++++++++++++++++++++++++++++++++++++++++++++++........",
"................++++++++++++++++++++++++++++++++++++++++++++++++++++++++++++++++++++++++++++++++++++++++++++++++++++++++........",
"................++++++++++++++++++++++++++++++++++++++++++++++++++++++++++++++++++++++++++++++++++++++++++++++++++++++++........",
"................++++++++++++++++++++++++++++++++++++++++++++++++++++++++++++++++++++++++++++++++++++++++++++++++++++++++........",
"................++++++++++++++++++++++++++++++++++++++++++++++++++++++++++++++++++++++++++++++++++++++++++++++++++++++++........",
"........++++++++........++++++++++++++++++++++++++++++++++++++++++++++++++++++++++++++++++++++++++++++++++++++++++++++++........",
"........++++++++........++++++++++++++++++++++++++++++++++++++++++++++++++++++++++++++++++++++++++++++++++++++++++++++++........",
"........++++++++........++++++++++++++++++++++++++++++++++++++++++++++++++++++++++++++++++++++++++++++++++++++++++++++++........",
"........++++++++........++++++++++++++++++++++++++++++++++++++++++++++++++++++++++++++++++++++++++++++++++++++++++++++++........",
"........++++++++........++++++++++++++++++++++++++++++++++++++++++++++++++++++++++++++++++++++++++++++++++++++++++++++++........",
"........++++++++........++++++++++++++++++++++++++++++++++++++++++++++++++++++++++++++++++++++++++++++++++++++++++++++++........",
"........++++++++........++++++++++++++++++++++++++++++++++++++++++++++++++++++++++++++++++++++++++++++++++++++++++++++++........",
"........++++++++........++++++++++++++++++++++++++++++++++++++++++++++++++++++++++++++++++++++++++++++++++++++++++++++++........",
"........++++++++++++++++++++++++++++++++++++++++++++++++++++++++++++++++++++++++++++++++++++++++++++++++++++++++++++++++........",
"........++++++++++++++++++++++++++++++++++++++++++++++++++++++++++++++++++++++++++++++++++++++++++++++++++++++++++++++++........",
"........++++++++++++++++++++++++++++++++++++++++++++++++++++++++++++++++++++++++++++++++++++++++++++++++++++++++++++++++........",
"........++++++++++++++++++++++++++++++++++++++++++++++++++++++++++++++++++++++++++++++++++++++++++++++++++++++++++++++++........",
"........++++++++++++++++++++++++++++++++++++++++++++++++++++++++++++++++++++++++++++++++++++++++++++++++++++++++++++++++........",
"........++++++++++++++++++++++++++++++++++++++++++++++++++++++++++++++++++++++++++++++++++++++++++++++++++++++++++++++++........",
"........++++++++++++++++++++++++++++++++++++++++++++++++++++++++++++++++++++++++++++++++++++++++++++++++++++++++++++++++........",
"........++++++++++++++++++++++++++++++++++++++++++++++++++++++++++++++++++++++++++++++++++++++++++++++++++++++++++++++++........",
"........++++++++++++++++++++++++++++++++++++++++++++++++++++++++++++++++++++++++++++++++++++++++++++++++++++++++++++++++........",
"........++++++++++++++++++++++++++++++++++++++++++++++++++++++++++++++++++++++++++++++++++++++++++++++++++++++++++++++++........",
"........++++++++++++++++++++++++++++++++++++++++++++++++++++++++++++++++++++++++++++++++++++++++++++++++++++++++++++++++........",
"........++++++++++++++++++++++++++++++++++++++++++++++++++++++++++++++++++++++++++++++++++++++++++++++++++++++++++++++++........",
"........++++++++++++++++++++++++++++++++++++++++++++++++++++++++++++++++++++++++++++++++++++++++++++++++++++++++++++++++........",
"........++++++++++++++++++++++++++++++++++++++++++++++++++++++++++++++++++++++++++++++++++++++++++++++++++++++++++++++++........",
"........++++++++++++++++++++++++++++++++++++++++++++++++++++++++++++++++++++++++++++++++++++++++++++++++++++++++++++++++........",
"........++++++++++++++++++++++++++++++++++++++++++++++++++++++++++++++++++++++++++++++++++++++++++++++++++++++++++++++++........",
"........++++++++++++++++++++++++++++++++++++++++++++++++++++++++++++++++++++++++++++++++++++++++++++++++++++++++++++++++........",
"........++++++++++++++++++++++++++++++++++++++++++++++++++++++++++++++++++++++++++++++++++++++++++++++++++++++++++++++++........",
"........++++++++++++++++++++++++++++++++++++++++++++++++++++++++++++++++++++++++++++++++++++++++++++++++++++++++++++++++........",
"........++++++++++++++++++++++++++++++++++++++++++++++++++++++++++++++++++++++++++++++++++++++++++++++++++++++++++++++++........",
"........++++++++++++++++++++++++++++++++++++++++++++++++++++++++++++++++++++++++++++++++++++++++++++++++++++++++++++++++........",
"........++++++++++++++++++++++++++++++++++++++++++++++++++++++++++++++++++++++++++++++++++++++++++++++++++++++++++++++++........",
"........++++++++++++++++++++++++++++++++++++++++++++++++++++++++++++++++++++++++++++++++++++++++++++++++++++++++++++++++........",
"........++++++++++++++++++++++++++++++++++++++++++++++++++++++++++++++++++++++++++++++++++++++++++++++++++++++++++++++++........",
"........++++++++................................++++++++++++++++................++++++++++++++++................++++++++........",
"........++++++++................................++++++++++++++++................++++++++++++++++................++++++++........",
"........++++++++................................++++++++++++++++................++++++++++++++++................++++++++........",
"........++++++++................................++++++++++++++++................++++++++++++++++................++++++++........",
"........++++++++................................++++++++++++++++................++++++++++++++++................++++++++........",
"........++++++++................................++++++++++++++++................++++++++++++++++................++++++++........",
"........++++++++................................++++++++++++++++................++++++++++++++++................++++++++........",
"........++++++++................................++++++++++++++++................++++++++++++++++................++++++++........",
"        ........                                ................                ................                ........        ",
"        ........                                ................                ................                ........        ",
"        ........                                ................                ................                ........        ",
"        ........                                ................                ................                ........        ",
"        ........                                ................                ................                ........        ",
"        ........                                ................                ................                ........        ",
"        ........                                ................                ................                ........        ",
"        ........                                ................                ................                ........        "};
