/* XPM */
static char * wall_face_xpm[] = {
"128 128 5 1",
" 	c #5C486A",
".	c #412051",
"+	c #B8B4B2",
"@	c #887D8D",
"#	c #DCDAC9",
"                                                                ................................                        ........",
"                                                                ................................                        ........",
"                                                                ................................                        ........",
"                                                                ................................                        ........",
"                                                                ................................                        ........",
"                                                                ................................                        ........",
"                                                                ................................                        ........",
"                                                                ................................                        ........",
"++++++++++++++++++++++++@@@@@@@@++++++++++++++++++++++++++++++++        ................        ++++++++@@@@@@@@@@@@@@@@        ",
"++++++++++++++++++++++++@@@@@@@@++++++++++++++++++++++++++++++++        ................        ++++++++@@@@@@@@@@@@@@@@        ",
"++++++++++++++++++++++++@@@@@@@@++++++++++++++++++++++++++++++++        ................        ++++++++@@@@@@@@@@@@@@@@        ",
"++++++++++++++++++++++++@@@@@@@@++++++++++++++++++++++++++++++++        ................        ++++++++@@@@@@@@@@@@@@@@        ",
"++++++++++++++++++++++++@@@@@@@@++++++++++++++++++++++++++++++++        ................        ++++++++@@@@@@@@@@@@@@@@        ",
"++++++++++++++++++++++++@@@@@@@@++++++++++++++++++++++++++++++++        ................        ++++++++@@@@@@@@@@@@@@@@        ",
"++++++++++++++++++++++++@@@@@@@@++++++++++++++++++++++++++++++++        ................        ++++++++@@@@@@@@@@@@@@@@        ",
"++++++++++++++++++++++++@@@@@@@@++++++++++++++++++++++++++++++++        ................        ++++++++@@@@@@@@@@@@@@@@        ",
"++++++++@@@@@@@@@@@@@@@@@@@@@@@@@@@@@@@@@@@@@@@@@@@@@@@@@@@@@@@@++++++++........        ++++++++@@@@@@@@@@@@@@@@@@@@@@@@        ",
"++++++++@@@@@@@@@@@@@@@@@@@@@@@@@@@@@@@@@@@@@@@@@@@@@@@@@@@@@@@@++++++++........        ++++++++@@@@@@@@@@@@@@@@@@@@@@@@        ",
"++++++++@@@@@@@@@@@@@@@@@@@@@@@@@@@@@@@@@@@@@@@@@@@@@@@@@@@@@@@@++++++++........        ++++++++@@@@@@@@@@@@@@@@@@@@@@@@        ",
"++++++++@@@@@@@@@@@@@@@@@@@@@@@@@@@@@@@@@@@@@@@@@@@@@@@@@@@@@@@@++++++++........        ++++++++@@@@@@@@@@@@@@@@@@@@@@@@        ",
"++++++++@@@@@@@@@@@@@@@@@@@@@@@@@@@@@@@@@@@@@@@@@@@@@@@@@@@@@@@@++++++++........        ++++++++@@@@@@@@@@@@@@@@@@@@@@@@        ",
"++++++++@@@@@@@@@@@@@@@@@@@@@@@@@@@@@@@@@@@@@@@@@@@@@@@@@@@@@@@@++++++++........        ++++++++@@@@@@@@@@@@@@@@@@@@@@@@        ",
"++++++++@@@@@@@@@@@@@@@@@@@@@@@@@@@@@@@@@@@@@@@@@@@@@@@@@@@@@@@@++++++++........        ++++++++@@@@@@@@@@@@@@@@@@@@@@@@        ",
"++++++++@@@@@@@@@@@@@@@@@@@@@@@@@@@@@@@@@@@@@@@@@@@@@@@@@@@@@@@@++++++++........        ++++++++@@@@@@@@@@@@@@@@@@@@@@@@        ",
"@@@@@@@@@@@@@@@@@@@@@@@@@@@@@@@@@@@@@@@@@@@@@@@@@@@@@@@@@@@@@@@@@@@@@@@@                @@@@@@@@@@@@@@@@@@@@@@@@@@@@@@@@        ",
"@@@@@@@@@@@@@@@@@@@@@@@@@@@@@@@@@@@@@@@@@@@@@@@@@@@@@@@@@@@@@@@@@@@@@@@@                @@@@@@@@@@@@@@@@@@@@@@@@@@@@@@@@        ",
"@@@@@@@@@@@@@@@@@@@@@@@@@@@@@@@@@@@@@@@@@@@@@@@@@@@@@@@@@@@@@@@@@@@@@@@@                @@@@@@@@@@@@@@@@@@@@@@@@@@@@@@@@        ",
"@@@@@@@@@@@@@@@@@@@@@@@@@@@@@@@@@@@@@@@@@@@@@@@@@@@@@@@@@@@@@@@@@@@@@@@@                @@@@@@@@@@@@@@@@@@@@@@@@@@@@@@@@        ",
"@@@@@@@@@@@@@@@@@@@@@@@@@@@@@@@@@@@@@@@@@@@@@@@@@@@@@@@@@@@@@@@@@@@@@@@@                @@@@@@@@@@@@@@@@@@@@@@@@@@@@@@@@        ",
"@@@@@@@@@@@@@@@@@@@@@@@@@@@@@@@@@@@@@@@@@@@@@@@@@@@@@@@@@@@@@@@@@@@@@@@@                @@@@@@@@@@@@@@@@@@@@@@@@@@@@@@@@        ",
"@@@@@@@@@@@@@@@@@@@@@@@@@@@@@@@@@@@@@@@@@@@@@@@@@@@@@@@@@@@@@@@@@@@@@@@@                @@@@@@@@@@@@@@@@@@@@@@@@@@@@@@@@        ",
"@@@@@@@@@@@@@@@@@@@@@@@@@@@@@@@@@@@@@@@@@@@@@@@@@@@@@@@@@@@@@@@@@@@@@@@@                @@@@@@@@@@@@@@@@@@@@@@@@@@@@@@@@        ",
"++++++++@@@@@@@@@@@@@@@@@@@@@@@@@@@@@@@@@@@@@@@@@@@@@@@@@@@@@@@@++++++++        ++++++++@@@@@@@@@@@@@@@@@@@@@@@@@@@@@@@@        ",
"++++++++@@@@@@@@@@@@@@@@@@@@@@@@@@@@@@@@@@@@@@@@@@@@@@@@@@@@@@@@++++++++        ++++++++@@@@@@@@@@@@@@@@@@@@@@@@@@@@@@@@        ",
"++++++++@@@@@@@@@@@@@@@@@@@@@@@@@@@@@@@@@@@@@@@@@@@@@@@@@@@@@@@@++++++++        ++++++++@@@@@@@@@@@@@@@@@@@@@@@@@@@@@@@@        ",
"++++++++@@@@@@@@@@@@@@@@@@@@@@@@@@@@@@@@@@@@@@@@@@@@@@@@@@@@@@@@++++++++        ++++++++@@@@@@@@@@@@@@@@@@@@@@@@@@@@@@@@        ",
"++++++++@@@@@@@@@@@@@@@@@@@@@@@@@@@@@@@@@@@@@@@@@@@@@@@@@@@@@@@@++++++++        ++++++++@@@@@@@@@@@@@@@@@@@@@@@@@@@@@@@@        ",
"++++++++@@@@@@@@@@@@@@@@@@@@@@@@@@@@@@@@@@@@@@@@@@@@@@@@@@@@@@@@++++++++        ++++++++@@@@@@@@@@@@@@@@@@@@@@@@@@@@@@@@        ",
"++++++++@@@@@@@@@@@@@@@@@@@@@@@@@@@@@@@@@@@@@@@@@@@@@@@@@@@@@@@@++++++++        ++++++++@@@@@@@@@@@@@@@@@@@@@@@@@@@@@@@@        ",
"++++++++@@@@@@@@@@@@@@@@@@@@@@@@@@@@@@@@@@@@@@@@@@@@@@@@@@@@@@@@++++++++        ++++++++@@@@@@@@@@@@@@@@@@@@@@@@@@@@@@@@        ",
"++++++++++++++++@@@@@@@@@@@@@@@@@@@@@@@@@@@@@@@@@@@@@@@@@@@@@@@@@@@@@@@@        ++++++++@@@@@@@@@@@@@@@@@@@@@@@@@@@@@@@@........",
"++++++++++++++++@@@@@@@@@@@@@@@@@@@@@@@@@@@@@@@@@@@@@@@@@@@@@@@@@@@@@@@@        ++++++++@@@@@@@@@@@@@@@@@@@@@@@@@@@@@@@@........",
"++++++++++++++++@@@@@@@@@@@@@@@@@@@@@@@@@@@@@@@@@@@@@@@@@@@@@@@@@@@@@@@@        ++++++++@@@@@@@@@@@@@@@@@@@@@@@@@@@@@@@@........",
"++++++++++++++++@@@@@@@@@@@@@@@@@@@@@@@@@@@@@@@@@@@@@@@@@@@@@@@@@@@@@@@@        ++++++++@@@@@@@@@@@@@@@@@@@@@@@@@@@@@@@@........",
"++++++++++++++++@@@@@@@@@@@@@@@@@@@@@@@@@@@@@@@@@@@@@@@@@@@@@@@@@@@@@@@@        ++++++++@@@@@@@@@@@@@@@@@@@@@@@@@@@@@@@@........",
"++++++++++++++++@@@@@@@@@@@@@@@@@@@@@@@@@@@@@@@@@@@@@@@@@@@@@@@@@@@@@@@@        ++++++++@@@@@@@@@@@@@@@@@@@@@@@@@@@@@@@@........",
"++++++++++++++++@@@@@@@@@@@@@@@@@@@@@@@@@@@@@@@@@@@@@@@@@@@@@@@@@@@@@@@@        ++++++++@@@@@@@@@@@@@@@@@@@@@@@@@@@@@@@@........",
"++++++++++++++++@@@@@@@@@@@@@@@@@@@@@@@@@@@@@@@@@@@@@@@@@@@@@@@@@@@@@@@@        ++++++++@@@@@@@@@@@@@@@@@@@@@@@@@@@@@@@@........",
"........                                                ........................                                ................",
"........                                                ........................                                ................",
"........                                                ........................                                ................",
"........                                                ........................                                ................",
"........                                                ........................                                ................",
"........                                                ........................                                ................",
"........                                                ........................                                ................",
"........                                                ........................                                ................",
"        ++++++++++++++++++++++++@@@@@@@@++++++++++++++++        ++++++++++++++++@@@@@@@@++++++++++++++++@@@@@@@@@@@@@@@@@@@@@@@@",
"        ++++++++++++++++++++++++@@@@@@@@++++++++++++++++        ++++++++++++++++@@@@@@@@++++++++++++++++@@@@@@@@@@@@@@@@@@@@@@@@",
"        ++++++++++++++++++++++++@@@@@@@@++++++++++++++++        ++++++++++++++++@@@@@@@@++++++++++++++++@@@@@@@@@@@@@@@@@@@@@@@@",
"        ++++++++++++++++++++++++@@@@@@@@++++++++++++++++        ++++++++++++++++@@@@@@@@++++++++++++++++@@@@@@@@@@@@@@@@@@@@@@@@",
"        ++++++++++++++++++++++++@@@@@@@@++++++++++++++++        ++++++++++++++++@@@@@@@@++++++++++++++++@@@@@@@@@@@@@@@@@@@@@@@@",
"        ++++++++++++++++++++++++@@@@@@@@++++++++++++++++        ++++++++++++++++@@@@@@@@++++++++++++++++@@@@@@@@@@@@@@@@@@@@@@@@",
"        ++++++++++++++++++++++++@@@@@@@@++++++++++++++++        ++++++++++++++++@@@@@@@@++++++++++++++++@@@@@@@@@@@@@@@@@@@@@@@@",
"        ++++++++++++++++++++++++@@@@@@@@++++++++++++++++        ++++++++++++++++@@@@@@@@++++++++++++++++@@@@@@@@@@@@@@@@@@@@@@@@",
"        ++++++++@@@@@@@@@@@@@@@@@@@@@@@@@@@@@@@@++++++++        @@@@@@@@@@@@@@@@@@@@@@@@@@@@@@@@@@@@@@@@@@@@@@@@@@@@@@@@@@@@@@@@",
"        ++++++++@@@@@@@@@@@@@@@@@@@@@@@@@@@@@@@@++++++++        @@@@@@@@@@@@@@@@@@@@@@@@@@@@@@@@@@@@@@@@@@@@@@@@@@@@@@@@@@@@@@@@",
"        ++++++++@@@@@@@@@@@@@@@@@@@@@@@@@@@@@@@@++++++++        @@@@@@@@@@@@@@@@@@@@@@@@@@@@@@@@@@@@@@@@@@@@@@@@@@@@@@@@@@@@@@@@",
"        ++++++++@@@@@@@@@@@@@@@@@@@@@@@@@@@@@@@@++++++++        @@@@@@@@@@@@@@@@@@@@@@@@@@@@@@@@@@@@@@@@@@@@@@@@@@@@@@@@@@@@@@@@",
"        ++++++++@@@@@@@@@@@@@@@@@@@@@@@@@@@@@@@@++++++++        @@@@@@@@@@@@@@@@@@@@@@@@@@@@@@@@@@@@@@@@@@@@@@@@@@@@@@@@@@@@@@@@",
"        ++++++++@@@@@@@@@@@@@@@@@@@@@@@@@@@@@@@@++++++++        @@@@@@@@@@@@@@@@@@@@@@@@@@@@@@@@@@@@@@@@@@@@@@@@@@@@@@@@@@@@@@@@",
"        ++++++++@@@@@@@@@@@@@@@@@@@@@@@@@@@@@@@@++++++++        @@@@@@@@@@@@@@@@@@@@@@@@@@@@@@@@@@@@@@@@@@@@@@@@@@@@@@@@@@@@@@@@",
"        ++++++++@@@@@@@@@@@@@@@@@@@@@@@@@@@@@@@@++++++++        @@@@@@@@@@@@@@@@@@@@@@@@@@@@@@@@@@@@@@@@@@@@@@@@@@@@@@@@@@@@@@@@",
"        ++++++++@@@@@@@@@@@@@@@@@@@@@@@@@@@@@@@@@@@@@@@@        ++++++++@@@@@@@@@@@@@@@@@@@@@@@@@@@@@@@@@@@@@@@@@@@@@@@@@@@@@@@@",
"        ++++++++@@@@@@@@@@@@@@@@@@@@@@@@@@@@@@@@@@@@@@@@        ++++++++@@@@@@@@@@@@@@@@@@@@@@@@@@@@@@@@@@@@@@@@@@@@@@@@@@@@@@@@",
"        ++++++++@@@@@@@@@@@@@@@@@@@@@@@@@@@@@@@@@@@@@@@@        ++++++++@@@@@@@@@@@@@@@@@@@@@@@@@@@@@@@@@@@@@@@@@@@@@@@@@@@@@@@@",
"        ++++++++@@@@@@@@@@@@@@@@@@@@@@@@@@@@@@@@@@@@@@@@        ++++++++@@@@@@@@@@@@@@@@@@@@@@@@@@@@@@@@@@@@@@@@@@@@@@@@@@@@@@@@",
"        ++++++++@@@@@@@@@@@@@@@@@@@@@@@@@@@@@@@@@@@@@@@@        ++++++++@@@@@@@@@@@@@@@@@@@@@@@@@@@@@@@@@@@@@@@@@@@@@@@@@@@@@@@@",
"        ++++++++@@@@@@@@@@@@@@@@@@@@@@@@@@@@@@@@@@@@@@@@        ++++++++@@@@@@@@@@@@@@@@@@@@@@@@@@@@@@@@@@@@@@@@@@@@@@@@@@@@@@@@",
"        ++++++++@@@@@@@@@@@@@@@@@@@@@@@@@@@@@@@@@@@@@@@@        ++++++++@@@@@@@@@@@@@@@@@@@@@@@@@@@@@@@@@@@@@@@@@@@@@@@@@@@@@@@@",
"        ++++++++@@@@@@@@@@@@@@@@@@@@@@@@@@@@@@@@@@@@@@@@        ++++++++@@@@@@@@@@@@@@@@@@@@@@@@@@@@@@@@@@@@@@@@@@@@@@@@@@@@@@@@",
"        @@@@@@@@@@@@@@@@@@@@@@@@@@@@@@@@@@@@@@@@@@@@@@@@        ++++++++++++++++@@@@@@@@@@@@@@@@@@@@@@@@@@@@@@@@@@@@@@@@@@@@@@@@",
"        @@@@@@@@@@@@@@@@@@@@@@@@@@@@@@@@@@@@@@@@@@@@@@@@        ++++++++++++++++@@@@@@@@@@@@@@@@@@@@@@@@@@@@@@@@@@@@@@@@@@@@@@@@",
"        @@@@@@@@@@@@@@@@@@@@@@@@@@@@@@@@@@@@@@@@@@@@@@@@        ++++++++++++++++@@@@@@@@@@@@@@@@@@@@@@@@@@@@@@@@@@@@@@@@@@@@@@@@",
"        @@@@@@@@@@@@@@@@@@@@@@@@@@@@@@@@@@@@@@@@@@@@@@@@        ++++++++++++++++@@@@@@@@@@@@@@@@@@@@@@@@@@@@@@@@@@@@@@@@@@@@@@@@",
"        @@@@@@@@@@@@@@@@@@@@@@@@@@@@@@@@@@@@@@@@@@@@@@@@        ++++++++++++++++@@@@@@@@@@@@@@@@@@@@@@@@@@@@@@@@@@@@@@@@@@@@@@@@",
"        @@@@@@@@@@@@@@@@@@@@@@@@@@@@@@@@@@@@@@@@@@@@@@@@        ++++++++++++++++@@@@@@@@@@@@@@@@@@@@@@@@@@@@@@@@@@@@@@@@@@@@@@@@",
"        @@@@@@@@@@@@@@@@@@@@@@@@@@@@@@@@@@@@@@@@@@@@@@@@        ++++++++++++++++@@@@@@@@@@@@@@@@@@@@@@@@@@@@@@@@@@@@@@@@@@@@@@@@",
"        @@@@@@@@@@@@@@@@@@@@@@@@@@@@@@@@@@@@@@@@@@@@@@@@        ++++++++++++++++@@@@@@@@@@@@@@@@@@@@@@@@@@@@@@@@@@@@@@@@@@@@@@@@",
"        ++++++++++++++++@@@@@@@@@@@@@@@@@@@@@@@@@@@@@@@@        ++++++++++++++++++++++++@@@@@@@@@@@@@@@@++++++++@@@@@@@@++++++++",
"        ++++++++++++++++@@@@@@@@@@@@@@@@@@@@@@@@@@@@@@@@        ++++++++++++++++++++++++@@@@@@@@@@@@@@@@++++++++@@@@@@@@++++++++",
"        ++++++++++++++++@@@@@@@@@@@@@@@@@@@@@@@@@@@@@@@@        ++++++++++++++++++++++++@@@@@@@@@@@@@@@@++++++++@@@@@@@@++++++++",
"        ++++++++++++++++@@@@@@@@@@@@@@@@@@@@@@@@@@@@@@@@        ++++++++++++++++++++++++@@@@@@@@@@@@@@@@++++++++@@@@@@@@++++++++",
"        ++++++++++++++++@@@@@@@@@@@@@@@@@@@@@@@@@@@@@@@@        ++++++++++++++++++++++++@@@@@@@@@@@@@@@@++++++++@@@@@@@@++++++++",
"        ++++++++++++++++@@@@@@@@@@@@@@@@@@@@@@@@@@@@@@@@        ++++++++++++++++++++++++@@@@@@@@@@@@@@@@++++++++@@@@@@@@++++++++",
"        ++++++++++++++++@@@@@@@@@@@@@@@@@@@@@@@@@@@@@@@@        ++++++++++++++++++++++++@@@@@@@@@@@@@@@@++++++++@@@@@@@@++++++++",
"        ++++++++++++++++@@@@@@@@@@@@@@@@@@@@@@@@@@@@@@@@        ++++++++++++++++++++++++@@@@@@@@@@@@@@@@++++++++@@@@@@@@++++++++",
"........                                                ........                                                                ",
"........                                                ........                                                                ",
"........                                                ........                                                                ",
"........                                                ........                                                                ",
"........                                                ........                                                                ",
"........                                                ........                                                                ",
"........                                                ........                                                                ",
"........                                                ........                                                                ",
"++++++++++++++++++++++++++++++++++++++++++++++++++++++++++++++++++++++++++++++++++++++++++++++++++++++++++++++++++++++++++++++++",
"++++++++++++++++++++++++++++++++++++++++++++++++++++++++++++++++++++++++++++++++++++++++++++++++++++++++++++++++++++++++++++++++",
"++++++++++++++++++++++++++++++++++++++++++++++++++++++++++++++++++++++++++++++++++++++++++++++++++++++++++++++++++++++++++++++++",
"++++++++++++++++++++++++++++++++++++++++++++++++++++++++++++++++++++++++++++++++++++++++++++++++++++++++++++++++++++++++++++++++",
"++++++++++++++++++++++++++++++++++++++++++++++++++++++++++++++++++++++++++++++++++++++++++++++++++++++++++++++++++++++++++++++++",
"++++++++++++++++++++++++++++++++++++++++++++++++++++++++++++++++++++++++++++++++++++++++++++++++++++++++++++++++++++++++++++++++",
"++++++++++++++++++++++++++++++++++++++++++++++++++++++++++++++++++++++++++++++++++++++++++++++++++++++++++++++++++++++++++++++++",
"++++++++++++++++++++++++++++++++++++++++++++++++++++++++++++++++++++++++++++++++++++++++++++++++++++++++++++++++++++++++++++++++",
"++++++++########@@@@@@@@@@@@@@@@@@@@@@@@++++++++########@@@@@@@@@@@@@@@@@@@@@@@@@@@@@@@@++++++++########@@@@@@@@@@@@@@@@@@@@@@@@",
"++++++++########@@@@@@@@@@@@@@@@@@@@@@@@++++++++########@@@@@@@@@@@@@@@@@@@@@@@@@@@@@@@@++++++++########@@@@@@@@@@@@@@@@@@@@@@@@",
"++++++++########@@@@@@@@@@@@@@@@@@@@@@@@++++++++########@@@@@@@@@@@@@@@@@@@@@@@@@@@@@@@@++++++++########@@@@@@@@@@@@@@@@@@@@@@@@",
"++++++++########@@@@@@@@@@@@@@@@@@@@@@@@++++++++########@@@@@@@@@@@@@@@@@@@@@@@@@@@@@@@@++++++++########@@@@@@@@@@@@@@@@@@@@@@@@",
"++++++++########@@@@@@@@@@@@@@@@@@@@@@@@++++++++########@@@@@@@@@@@@@@@@@@@@@@@@@@@@@@@@++++++++########@@@@@@@@@@@@@@@@@@@@@@@@",
"++++++++########@@@@@@@@@@@@@@@@@@@@@@@@++++++++########@@@@@@@@@@@@@@@@@@@@@@@@@@@@@@@@++++++++########@@@@@@@@@@@@@@@@@@@@@@@@",
"++++++++########@@@@@@@@@@@@@@@@@@@@@@@@++++++++########@@@@@@@@@@@@@@@@@@@@@@@@@@@@@@@@++++++++########@@@@@@@@@@@@@@@@@@@@@@@@",
"++++++++########@@@@@@@@@@@@@@@@@@@@@@@@++++++++########@@@@@@@@@@@@@@@@@@@@@@@@@@@@@@@@++++++++########@@@@@@@@@@@@@@@@@@@@@@@@",
"########@@@@@@@@                        ########@@@@@@@@                                ########@@@@@@@@                        ",
"########@@@@@@@@                        ########@@@@@@@@                                ########@@@@@@@@                        ",
"########@@@@@@@@                        ########@@@@@@@@                                ########@@@@@@@@                        ",
"########@@@@@@@@                        ########@@@@@@@@                                ########@@@@@@@@                        ",
"########@@@@@@@@                        ########@@@@@@@@                                ########@@@@@@@@                        ",
"########@@@@@@@@                        ########@@@@@@@@                                ########@@@@@@@@                        ",
"########@@@@@@@@                        ########@@@@@@@@                                ########@@@@@@@@                        ",
"########@@@@@@@@                        ########@@@@@@@@                                ########@@@@@@@@                        "};
