/* XPM */
static char * water_xpm[] = {
"128 128 5 1",
" 	c #4E6679",
".	c #89D9D9",
"+	c #72B6CF",
"@	c #464969",
"#	c #B6F5DB",
"                ........++++++++++++++++++++++++++++++++++++++++                ........++++++++++++++++++++++++@@@@@@@@........",
"                ........++++++++++++++++++++++++++++++++++++++++                ........++++++++++++++++++++++++@@@@@@@@........",
"                ........++++++++++++++++++++++++++++++++++++++++                ........++++++++++++++++++++++++@@@@@@@@........",
"                ........++++++++++++++++++++++++++++++++++++++++                ........++++++++++++++++++++++++@@@@@@@@........",
"                ........++++++++++++++++++++++++++++++++++++++++                ........++++++++++++++++++++++++@@@@@@@@........",
"                ........++++++++++++++++++++++++++++++++++++++++                ........++++++++++++++++++++++++@@@@@@@@........",
"                ........++++++++++++++++++++++++++++++++++++++++                ........++++++++++++++++++++++++@@@@@@@@........",
"                ........++++++++++++++++++++++++++++++++++++++++                ........++++++++++++++++++++++++@@@@@@@@........",
"        ++++++++++++++++########................++++++++........................########++++++++++++++++++++++++++++++++@@@@@@@@",
"        ++++++++++++++++########................++++++++........................########++++++++++++++++++++++++++++++++@@@@@@@@",
"        ++++++++++++++++########................++++++++........................########++++++++++++++++++++++++++++++++@@@@@@@@",
"        ++++++++++++++++########................++++++++........................########++++++++++++++++++++++++++++++++@@@@@@@@",
"        ++++++++++++++++########................++++++++........................########++++++++++++++++++++++++++++++++@@@@@@@@",
"        ++++++++++++++++########................++++++++........................########++++++++++++++++++++++++++++++++@@@@@@@@",
"        ++++++++++++++++########................++++++++........................########++++++++++++++++++++++++++++++++@@@@@@@@",
"        ++++++++++++++++########................++++++++........................########++++++++++++++++++++++++++++++++@@@@@@@@",
"        ++++++++++++++++++++++++++++++++++++++++++++++++++++++++########................................########++++++++........",
"        ++++++++++++++++++++++++++++++++++++++++++++++++++++++++########................................########++++++++........",
"        ++++++++++++++++++++++++++++++++++++++++++++++++++++++++########................................########++++++++........",
"        ++++++++++++++++++++++++++++++++++++++++++++++++++++++++########................................########++++++++........",
"        ++++++++++++++++++++++++++++++++++++++++++++++++++++++++########................................########++++++++........",
"        ++++++++++++++++++++++++++++++++++++++++++++++++++++++++########................................########++++++++........",
"        ++++++++++++++++++++++++++++++++++++++++++++++++++++++++########................................########++++++++........",
"        ++++++++++++++++++++++++++++++++++++++++++++++++++++++++########................................########++++++++........",
"        ++++++++++++++++++++++++++++++++++++++++++++++++++++++++        ++++++++++++++++++++++++++++++++++++++++++++++++++++++++",
"        ++++++++++++++++++++++++++++++++++++++++++++++++++++++++        ++++++++++++++++++++++++++++++++++++++++++++++++++++++++",
"        ++++++++++++++++++++++++++++++++++++++++++++++++++++++++        ++++++++++++++++++++++++++++++++++++++++++++++++++++++++",
"        ++++++++++++++++++++++++++++++++++++++++++++++++++++++++        ++++++++++++++++++++++++++++++++++++++++++++++++++++++++",
"        ++++++++++++++++++++++++++++++++++++++++++++++++++++++++        ++++++++++++++++++++++++++++++++++++++++++++++++++++++++",
"        ++++++++++++++++++++++++++++++++++++++++++++++++++++++++        ++++++++++++++++++++++++++++++++++++++++++++++++++++++++",
"        ++++++++++++++++++++++++++++++++++++++++++++++++++++++++        ++++++++++++++++++++++++++++++++++++++++++++++++++++++++",
"        ++++++++++++++++++++++++++++++++++++++++++++++++++++++++        ++++++++++++++++++++++++++++++++++++++++++++++++++++++++",
"        ########........................++++++++++++++++++++++++        ........########++++++++++++++++++++++++++++++++++++++++",
"        ########........................++++++++++++++++++++++++        ........########++++++++++++++++++++++++++++++++++++++++",
"        ########........................++++++++++++++++++++++++        ........########++++++++++++++++++++++++++++++++++++++++",
"        ########........................++++++++++++++++++++++++        ........########++++++++++++++++++++++++++++++++++++++++",
"        ########........................++++++++++++++++++++++++        ........########++++++++++++++++++++++++++++++++++++++++",
"        ########........................++++++++++++++++++++++++        ........########++++++++++++++++++++++++++++++++++++++++",
"        ########........................++++++++++++++++++++++++        ........########++++++++++++++++++++++++++++++++++++++++",
"        ########........................++++++++++++++++++++++++        ........########++++++++++++++++++++++++++++++++++++++++",
"        ++++++++++++++++++++++++++++++++++++++++++++++++++++++++        ++++++++++++++++########................########++++++++",
"        ++++++++++++++++++++++++++++++++++++++++++++++++++++++++        ++++++++++++++++########................########++++++++",
"        ++++++++++++++++++++++++++++++++++++++++++++++++++++++++        ++++++++++++++++########................########++++++++",
"        ++++++++++++++++++++++++++++++++++++++++++++++++++++++++        ++++++++++++++++########................########++++++++",
"        ++++++++++++++++++++++++++++++++++++++++++++++++++++++++        ++++++++++++++++########................########++++++++",
"        ++++++++++++++++++++++++++++++++++++++++++++++++++++++++        ++++++++++++++++########................########++++++++",
"        ++++++++++++++++++++++++++++++++++++++++++++++++++++++++        ++++++++++++++++########................########++++++++",
"        ++++++++++++++++++++++++++++++++++++++++++++++++++++++++        ++++++++++++++++########................########++++++++",
"                ++++++++++++++++++++++++++++++++++++++++                ++++++++++++++++++++++++++++++++++++++++++++++++        ",
"                ++++++++++++++++++++++++++++++++++++++++                ++++++++++++++++++++++++++++++++++++++++++++++++        ",
"                ++++++++++++++++++++++++++++++++++++++++                ++++++++++++++++++++++++++++++++++++++++++++++++        ",
"                ++++++++++++++++++++++++++++++++++++++++                ++++++++++++++++++++++++++++++++++++++++++++++++        ",
"                ++++++++++++++++++++++++++++++++++++++++                ++++++++++++++++++++++++++++++++++++++++++++++++        ",
"                ++++++++++++++++++++++++++++++++++++++++                ++++++++++++++++++++++++++++++++++++++++++++++++        ",
"                ++++++++++++++++++++++++++++++++++++++++                ++++++++++++++++++++++++++++++++++++++++++++++++        ",
"                ++++++++++++++++++++++++++++++++++++++++                ++++++++++++++++++++++++++++++++++++++++++++++++        ",
"@@@@@@@@                                                        @@@@@@@@                                                        ",
"@@@@@@@@                                                        @@@@@@@@                                                        ",
"@@@@@@@@                                                        @@@@@@@@                                                        ",
"@@@@@@@@                                                        @@@@@@@@                                                        ",
"@@@@@@@@                                                        @@@@@@@@                                                        ",
"@@@@@@@@                                                        @@@@@@@@                                                        ",
"@@@@@@@@                                                        @@@@@@@@                                                        ",
"@@@@@@@@                                                        @@@@@@@@                                                        ",
"                ................########++++++++++++++++++++++++                ########................++++++++........++++++++",
"                ................########++++++++++++++++++++++++                ########................++++++++........++++++++",
"                ................########++++++++++++++++++++++++                ########................++++++++........++++++++",
"                ................########++++++++++++++++++++++++                ########................++++++++........++++++++",
"                ................########++++++++++++++++++++++++                ########................++++++++........++++++++",
"                ................########++++++++++++++++++++++++                ########................++++++++........++++++++",
"                ................########++++++++++++++++++++++++                ########................++++++++........++++++++",
"                ................########++++++++++++++++++++++++                ########................++++++++........++++++++",
"................########++++++++++++++++........++++++++########................................++++++++++++++++++++++++++++++++",
"................########++++++++++++++++........++++++++########................................++++++++++++++++++++++++++++++++",
"................########++++++++++++++++........++++++++########................................++++++++++++++++++++++++++++++++",
"................########++++++++++++++++........++++++++########................................++++++++++++++++++++++++++++++++",
"................########++++++++++++++++........++++++++########................................++++++++++++++++++++++++++++++++",
"................########++++++++++++++++........++++++++########................................++++++++++++++++++++++++++++++++",
"................########++++++++++++++++........++++++++########................................++++++++++++++++++++++++++++++++",
"................########++++++++++++++++........++++++++########................................++++++++++++++++++++++++++++++++",
"        ++++++++++++++++++++++++++++++++++++++++++++++++++++++++        ........++++++++++++++++++++++++++++++++++++++++++++++++",
"        ++++++++++++++++++++++++++++++++++++++++++++++++++++++++        ........++++++++++++++++++++++++++++++++++++++++++++++++",
"        ++++++++++++++++++++++++++++++++++++++++++++++++++++++++        ........++++++++++++++++++++++++++++++++++++++++++++++++",
"        ++++++++++++++++++++++++++++++++++++++++++++++++++++++++        ........++++++++++++++++++++++++++++++++++++++++++++++++",
"        ++++++++++++++++++++++++++++++++++++++++++++++++++++++++        ........++++++++++++++++++++++++++++++++++++++++++++++++",
"        ++++++++++++++++++++++++++++++++++++++++++++++++++++++++        ........++++++++++++++++++++++++++++++++++++++++++++++++",
"        ++++++++++++++++++++++++++++++++++++++++++++++++++++++++        ........++++++++++++++++++++++++++++++++++++++++++++++++",
"        ++++++++++++++++++++++++++++++++++++++++++++++++++++++++        ........++++++++++++++++++++++++++++++++++++++++++++++++",
"        ++++++++++++++++++++++++++++++++++++++++++++++++++++++++        ++++++++++++++++++++++++++++++++++++++++++++++++++++++++",
"        ++++++++++++++++++++++++++++++++++++++++++++++++++++++++        ++++++++++++++++++++++++++++++++++++++++++++++++++++++++",
"        ++++++++++++++++++++++++++++++++++++++++++++++++++++++++        ++++++++++++++++++++++++++++++++++++++++++++++++++++++++",
"        ++++++++++++++++++++++++++++++++++++++++++++++++++++++++        ++++++++++++++++++++++++++++++++++++++++++++++++++++++++",
"        ++++++++++++++++++++++++++++++++++++++++++++++++++++++++        ++++++++++++++++++++++++++++++++++++++++++++++++++++++++",
"        ++++++++++++++++++++++++++++++++++++++++++++++++++++++++        ++++++++++++++++++++++++++++++++++++++++++++++++++++++++",
"        ++++++++++++++++++++++++++++++++++++++++++++++++++++++++        ++++++++++++++++++++++++++++++++++++++++++++++++++++++++",
"        ++++++++++++++++++++++++++++++++++++++++++++++++++++++++        ++++++++++++++++++++++++++++++++++++++++++++++++++++++++",
"        ++++++++++++++++++++++++........++++++++########................................########........########++++++++++++++++",
"        ++++++++++++++++++++++++........++++++++########................................########........########++++++++++++++++",
"        ++++++++++++++++++++++++........++++++++########................................########........########++++++++++++++++",
"        ++++++++++++++++++++++++........++++++++########................................########........########++++++++++++++++",
"        ++++++++++++++++++++++++........++++++++########................................########........########++++++++++++++++",
"        ++++++++++++++++++++++++........++++++++########................................########........########++++++++++++++++",
"        ++++++++++++++++++++++++........++++++++########................................########........########++++++++++++++++",
"        ++++++++++++++++++++++++........++++++++########................................########........########++++++++++++++++",
"        ........########++++++++++++++++++++++++++++++++++++++++        ++++++++++++++++++++++++++++++++++++++++++++++++++++++++",
"        ........########++++++++++++++++++++++++++++++++++++++++        ++++++++++++++++++++++++++++++++++++++++++++++++++++++++",
"        ........########++++++++++++++++++++++++++++++++++++++++        ++++++++++++++++++++++++++++++++++++++++++++++++++++++++",
"        ........########++++++++++++++++++++++++++++++++++++++++        ++++++++++++++++++++++++++++++++++++++++++++++++++++++++",
"        ........########++++++++++++++++++++++++++++++++++++++++        ++++++++++++++++++++++++++++++++++++++++++++++++++++++++",
"        ........########++++++++++++++++++++++++++++++++++++++++        ++++++++++++++++++++++++++++++++++++++++++++++++++++++++",
"        ........########++++++++++++++++++++++++++++++++++++++++        ++++++++++++++++++++++++++++++++++++++++++++++++++++++++",
"        ........########++++++++++++++++++++++++++++++++++++++++        ++++++++++++++++++++++++++++++++++++++++++++++++++++++++",
"                ........................########++++++++                        ++++++++++++++++++++++++++++++++++++++++        ",
"                ........................########++++++++                        ++++++++++++++++++++++++++++++++++++++++        ",
"                ........................########++++++++                        ++++++++++++++++++++++++++++++++++++++++        ",
"                ........................########++++++++                        ++++++++++++++++++++++++++++++++++++++++        ",
"                ........................########++++++++                        ++++++++++++++++++++++++++++++++++++++++        ",
"                ........................########++++++++                        ++++++++++++++++++++++++++++++++++++++++        ",
"                ........................########++++++++                        ++++++++++++++++++++++++++++++++++++++++        ",
"                ........................########++++++++                        ++++++++++++++++++++++++++++++++++++++++        ",
"@@@@@@@@                                                        @@@@@@@@                                                        ",
"@@@@@@@@                                                        @@@@@@@@                                                        ",
"@@@@@@@@                                                        @@@@@@@@                                                        ",
"@@@@@@@@                                                        @@@@@@@@                                                        ",
"@@@@@@@@                                                        @@@@@@@@                                                        ",
"@@@@@@@@                                                        @@@@@@@@                                                        ",
"@@@@@@@@                                                        @@@@@@@@                                                        ",
"@@@@@@@@                                                        @@@@@@@@                                                        "};
